<?xml version="1.0" encoding="UTF-8" standalone="no"?>
<!-- Created with Inkscape (http://www.inkscape.org/) -->

<svg
   version="1.1"
   id="svg2708"
   width="896.34656"
   height="819.98187"
   viewBox="0 0 896.34656 819.98187"
   sodipodi:docname="old-man-7c.svg"
   inkscape:version="1.3.2 (091e20ef0f, 2023-11-25)"
   xmlns:inkscape="http://www.inkscape.org/namespaces/inkscape"
   xmlns:sodipodi="http://sodipodi.sourceforge.net/DTD/sodipodi-0.dtd"
   xmlns="http://www.w3.org/2000/svg"
   xmlns:svg="http://www.w3.org/2000/svg">
  <defs
     id="defs2712" />
  <sodipodi:namedview
     id="namedview2710"
     pagecolor="#ffffff"
     bordercolor="#000000"
     borderopacity="0.25"
     inkscape:showpageshadow="2"
     inkscape:pageopacity="0.0"
     inkscape:pagecheckerboard="0"
     inkscape:deskcolor="#d1d1d1"
     showgrid="false"
     inkscape:zoom="0.92370266"
     inkscape:cx="464.97647"
     inkscape:cy="417.34209"
     inkscape:window-width="1920"
     inkscape:window-height="1011"
     inkscape:window-x="0"
     inkscape:window-y="0"
     inkscape:window-maximized="1"
     inkscape:current-layer="layer1" />
  <g
     inkscape:groupmode="layer"
     id="layer1"
     inkscape:label="Layer 1"
     transform="translate(-28.688171,-10.666666)">
    <path
       id="path3189"
       style="fill:#000000;stroke-width:1.33333"
       d="M 662.10223 10.666666 C 660.69267 10.666666 651.31971 26.559694 648.47723 33.768228 C 643.67716 45.942493 643.23274 48.637424 637.4245 100.76432 C 634.48885 127.11057 630.57398 161.86739 628.72528 178.00065 C 626.87657 194.1339 625.35633 207.75473 625.34833 208.27018 C 625.34006 208.78562 622.42461 208.86307 618.86981 208.44206 L 612.40692 207.67643 L 611.53778 214.02409 C 611.05924 217.51529 610.66573 221.93791 610.66473 223.85221 L 610.66083 227.33268 L 596.66473 227.43815 L 582.66669 227.54362 L 582.66669 219.68424 C 582.66669 209.89404 581.2675 207.20091 575.62958 206.14323 C 572.04266 205.47032 570.64113 204.18464 568.35028 199.4694 C 566.78969 196.25723 563.62003 191.47453 561.30731 188.84049 C 557.22435 184.19025 556.99127 184.10886 553.28387 186.02604 C 546.61525 189.47454 543.62243 188.58028 540.81512 182.29948 C 539.26728 178.83639 532.90294 171.38501 524.28973 162.95378 C 508.87033 147.86013 508.92798 148.08608 519.33856 143.38151 C 523.96041 141.29288 539.72827 124.82028 541.48309 120.24674 C 543.31177 115.48079 542.9008 113.33268 540.16278 113.33268 C 537.03279 113.33268 535.15606 111.12573 533.92059 105.99284 C 533.39206 103.79694 532.04537 100.20065 530.92841 98.00065 C 529.6604 95.503237 528.84498 89.992457 528.75848 83.332682 C 528.66236 75.935741 527.87551 71.154253 526.19012 67.733072 C 523.7804 62.841452 523.79415 62.645212 527.87958 44.561197 C 533.33198 20.426044 533.44097 21.498397 525.66669 22.754557 C 518.19057 23.962529 514.66669 25.218154 514.66669 26.674478 C 514.66669 27.255512 511.8308 27.957498 508.36591 28.233072 C 503.63028 28.609712 501.47903 28.145001 499.69989 26.365885 C 498.39816 25.064154 495.93983 24.00065 494.237 24.00065 C 491.54427 24.00065 484.88571 17.74711 481.16278 11.723307 C 480.34127 10.394087 473.08873 17.351244 470.2663 22.176432 C 469.67986 23.178989 467.62823 24.00065 465.70575 24.00065 C 463.78327 24.00065 461.07815 25.025389 459.69403 26.277994 C 456.65871 29.024902 447.10104 28.754852 443.83661 25.830728 C 442.08098 24.258116 428.06099 20.935691 427.05731 21.854166 C 426.906 21.992624 428.89571 31.381862 431.47723 42.7194 C 436.09638 63.005498 436.1341 63.40817 433.82294 68.00065 C 432.26208 71.102178 431.38702 76.243477 431.21551 83.332682 C 431.07319 89.21519 430.06686 96.09307 428.97137 98.666666 C 427.87886 101.23333 426.02193 105.58268 424.84637 108.33268 C 423.34714 111.8399 421.87469 113.33268 419.91473 113.33268 C 417.45706 113.33268 417.23535 113.8543 418.07098 117.65885 C 419.00223 121.8988 425.13363 130.39017 430.5827 134.98698 C 432.09547 136.26314 433.3327 137.82726 433.3327 138.46354 C 433.3327 139.09981 429.59579 141.92739 425.02801 144.74674 C 413.93663 151.59278 401.06819 164.88604 396.50848 174.20573 C 391.30168 184.84806 390.50223 201.04944 394.58856 213.13346 C 397.89236 222.9033 398.08117 221.93984 387.82489 247.53581 C 383.91632 257.29016 381.3444 265.78071 381.362 268.86979 C 381.43984 282.50945 394.50918 295.74767 410.22333 298.10417 L 416.00067 298.9694 L 416.00067 307.53776 C 416.00067 313.51371 416.81829 317.70907 418.7038 321.40495 C 420.75064 325.41714 421.07514 327.326 420.03778 329.26432 C 419.28422 330.67236 418.66669 335.20371 418.66669 339.33463 C 418.66669 345.86415 418.36118 346.75629 416.3327 346.15104 C 405.16084 342.81753 400.89287 342.3048 399.46747 344.12565 C 398.28108 345.64119 391.60911 346.02463 364.66669 346.12956 C 327.26167 346.27528 319.48239 347.54965 300.19403 356.68815 C 291.60833 360.75592 289.09895 361.33268 280.00848 361.33268 C 268.79743 361.33268 254.91325 358.76648 226.66669 351.47135 C 194.24622 343.09828 178.04446 342.25202 161.47137 348.06901 C 138.40358 356.16562 122.65614 376.19908 103.88544 421.33268 C 80.226461 478.22 65.417028 503.52562 40.98114 528.8151 C 24.589709 545.77915 24.588441 543.54691 40.986999 551.82487 C 56.466718 559.63899 77.626394 562.19723 92.979187 558.11003 C 103.69156 555.25818 116.39441 547.48051 123.66864 539.31901 C 129.58314 532.68309 131.44319 531.54976 143.43231 527.27604 C 168.48561 518.34544 181.09065 509.15847 189.08661 494.00065 C 192.53308 487.46726 192.6173 486.69301 193.30145 455.33268 C 193.99365 423.60383 194.03148 423.26771 197.74872 415.69792 C 201.66793 407.71672 205.59933 404.11574 213.19989 401.53776 C 218.79991 399.63833 232.33726 399.55257 238.90106 401.37565 L 243.80145 402.73698 L 237.84833 412.36784 C 224.4456 434.05531 222.63066 453.00695 231.19208 481.88542 C 237.42486 502.90916 237.23759 506.09055 228.72919 523.71354 C 221.21963 539.26766 213.2771 551.91247 195.66669 576.34049 C 183.63809 593.02584 181.60759 595.17548 173.16669 600.1901 C 160.81601 607.52753 156.39905 613.02634 155.19989 622.55338 C 154.26135 630.00986 156.39483 666.70436 158.01044 670.89128 C 158.4827 672.11512 163.02249 676.20473 168.09833 679.97917 C 181.74251 690.12509 182.18287 696.79045 170.46747 715.83268 L 163.3913 727.33268 L 163.54559 740.66667 C 163.68318 752.58485 167.23002 788.74958 168.67645 792.98698 C 169.04484 794.06618 172.18046 792.58677 177.69598 788.73112 C 186.04085 782.89764 201.94874 774.37454 207.53973 772.74088 C 209.74952 772.09523 211.09337 772.8561 213.35614 776.03385 C 216.13203 779.93224 216.21614 780.73092 214.81708 790.13737 C 214.00139 795.62174 213.3327 804.31495 213.3327 809.45573 L 213.3327 818.80338 L 217.81903 820.67643 C 220.28583 821.70712 231.16047 824.05101 241.98505 825.88542 C 252.80962 827.71979 261.99186 829.54655 262.38934 829.94401 C 263.57714 831.13181 267.99264 830.76396 270.83856 829.24088 C 273.27924 827.9347 273.43105 826.90781 272.67255 816.90885 C 271.54784 802.08258 269.63279 793.71381 265.84833 787.09245 C 263.26248 782.56821 262.91487 780.85531 263.99872 778.00456 C 266.44037 771.58253 265.50689 767.38061 260.00067 760.00065 C 257.06733 756.06909 254.66669 752.65572 254.66669 752.41667 C 254.66669 748.66199 250.25168 724.38231 249.21747 722.44987 C 248.4423 721.00143 244.80495 716.49992 241.13544 712.44792 C 233.44871 703.95996 230.94655 698.69813 226.05341 680.73698 C 222.94811 669.3385 222.69244 666.91142 223.92841 660.55729 C 228.51274 636.98885 227.85617 638.76179 232.73505 636.72331 C 245.6797 631.31466 280.72776 609.34834 292.96551 598.97331 C 297.77039 594.89981 301.26618 593.00597 304.23114 592.86784 L 308.52997 592.66667 L 310.95966 604.00065 C 312.91378 613.11173 313.31915 620.13203 313.02801 639.80729 L 312.66669 664.2819 L 318.93231 669.96159 C 324.57483 675.07764 340.84093 683.91532 359.52606 692.01628 C 370.0207 696.5662 371.14494 700.56339 366.43426 716.57487 C 363.58172 726.27078 363.57247 726.6114 365.82294 738.0651 C 368.4839 751.60822 374.43716 767.778 379.49676 775.20573 L 383.04364 780.41276 L 384.72919 777.20573 C 386.97895 772.92793 391.44681 769.79184 407.3327 761.34245 C 414.666 757.442 421.86604 753.19277 423.3327 751.89909 C 425.106 750.33505 427.24207 749.78967 429.70575 750.27018 C 432.79251 750.87222 433.24948 751.46489 432.44989 753.82878 C 431.92206 755.38923 429.89291 762.96667 427.94012 770.66667 L 424.38934 784.66667 L 428.52801 789.09049 C 433.97179 794.9095 451.32763 803.34257 464.66669 806.64909 C 481.51233 810.82479 480.79419 811.17168 481.79364 798.33268 C 483.17716 780.56012 482.80691 769.07103 480.59637 761.28971 C 479.45729 757.27994 477.67176 747.99996 476.62958 740.66667 C 475.21385 730.70473 473.5446 724.92474 470.02997 717.80729 C 462.80784 703.18185 454.09034 695.94685 427.7663 682.73307 C 389.55319 663.55144 367.35006 643.22808 372.09442 631.77409 C 374.04886 627.05566 378.13081 623.9232 394.04755 614.93229 C 400.67395 611.1892 408.37318 605.84882 411.15692 603.0651 C 419.76449 594.45752 426.40434 577.44543 431.46942 551.02018 C 432.42385 546.04081 437.9917 545.70227 449.3327 549.93229 C 476.30735 559.99349 485.46369 562.93323 503.00262 567.17057 C 513.45146 569.69499 526.50071 572.44657 532.00067 573.28581 C 551.43293 576.25093 549.73905 575.18586 548.68426 583.80338 C 547.73817 591.5333 542.93529 616.17539 542.23895 616.87174 C 541.24123 617.86946 531.031 614.13174 528.58075 611.87174 C 526.95585 610.37306 523.89732 609.33268 521.11395 609.33268 C 516.09623 609.33268 507.99328 611.67996 508.00848 613.12956 C 508.01349 613.60782 510.0902 615.40953 512.62176 617.13346 C 516.30722 619.64314 518.62951 620.1865 524.27801 619.85807 C 528.15806 619.63246 533.58121 619.93827 536.3288 620.53776 L 541.32489 621.6276 L 540.56708 630.48112 C 539.94978 637.69822 540.2854 640.18993 542.37958 643.96745 C 545.75511 650.05635 554.50789 654.66667 562.69012 654.66667 C 572.17641 654.66667 583.75711 661.23383 594.24091 672.55729 C 602.75587 681.75424 602.91117 681.8481 610.71747 682.41276 C 615.05206 682.7263 621.91451 682.56735 625.96551 682.0612 C 632.19622 681.28272 633.45092 680.6619 634.112 678.02799 C 634.80933 675.24959 635.92123 674.81281 644.44598 673.97135 C 655.07651 672.92203 658.66669 671.55446 658.66669 668.55338 C 658.66669 665.45993 654.87798 658.76262 648.5495 650.66667 C 643.38485 644.0596 642.89137 642.7948 643.55341 637.90299 C 644.76002 628.98704 641.67316 617.40748 636.78973 612.52409 L 632.55536 608.28971 L 635.612 604.73698 C 639.15786 600.61468 639.50469 595.25393 636.66669 588.46159 C 635.56669 585.82891 634.66669 583.53825 634.66669 583.37174 C 634.66669 583.20524 640.21737 582.69323 647.00067 582.23307 C 653.78396 581.7729 661.17905 580.85262 663.43426 580.1901 L 667.53387 578.98698 L 672.62176 592.49284 C 675.41988 599.92154 679.21063 609.9 681.04559 614.66667 C 683.70634 621.57848 684.4556 626.18991 684.74481 637.43815 C 685.13286 652.53007 686.32107 658.5154 691.54755 671.68229 C 694.39588 678.85804 694.65113 680.67072 693.362 684.57682 C 690.96323 691.84511 684.63137 699.51476 676.99286 704.40104 C 664.52068 712.37939 660.74952 718.96157 653.91864 744.66667 C 650.90086 756.02267 647.46741 775.9127 648.36981 776.8151 C 648.59907 777.04437 655.06253 775.19695 662.73309 772.70963 C 670.40369 770.22234 680.62622 767.45976 685.44989 766.57096 C 693.72437 765.04632 694.6253 765.13852 701.37176 768.19987 L 708.52216 771.44401 L 708.72333 792.05534 C 708.83354 803.39149 709.36245 813.92797 709.89911 815.4694 C 711.78723 820.89268 719.20279 822.99715 738.45184 823.57096 C 756.07178 824.0962 756.31981 824.06137 765.30341 819.92057 L 774.37176 815.74088 L 771.05731 804.86979 C 766.72782 790.6638 760.32436 775.26217 757.91473 773.26237 C 756.86219 772.38882 756.00067 769.77268 756.00067 767.44987 C 756.00067 760.47042 752.50244 749.20931 746.41669 736.59049 L 740.66669 724.66667 L 740.74481 707.33268 C 740.81746 691.29463 741.08738 689.49005 744.34247 683.18229 C 750.21975 671.79313 750.28127 667.69958 745.17059 628.96159 C 743.63756 617.34156 743.70688 614.73119 745.80341 604.96159 C 748.26237 593.50292 751.21104 576.88983 752.60028 566.66667 C 753.25945 561.81591 754.24276 560.12802 757.73309 557.85612 C 760.80035 555.85963 762.88997 555.35777 764.94989 556.11979 C 774.04806 559.48544 790.29631 561.58363 816.00067 562.71354 C 831.7673 563.40661 848.20331 564.72906 852.52606 565.65299 L 860.38544 567.33268 L 863.79755 577.08854 C 868.75883 591.27363 866.35883 593.75439 845.61005 595.90104 C 838.98159 596.58681 831.83649 598.0389 829.73114 599.1276 C 821.86269 603.19656 788.11771 642.47268 788.02801 647.66667 C 788.00941 648.74252 790.00863 649.33359 793.66669 649.33659 C 806.26051 649.34407 837.51715 660.46624 835.25067 664.13346 C 834.83837 664.80058 830.7956 667.86233 826.2663 670.93815 C 821.73695 674.01398 815.47345 678.88755 812.34833 681.76823 C 806.91114 686.78002 806.66669 687.34037 806.66669 694.77018 C 806.66669 715.20996 815.34445 733.50121 827.61786 738.93034 L 833.52411 741.54362 L 840.94989 737.10417 C 850.20873 731.5702 858.03335 721.9212 860.69989 712.7487 C 862.13329 707.81799 863.68105 705.29837 865.89911 704.28776 C 869.86673 702.47997 875.50964 695.17218 877.53583 689.21549 C 878.38668 686.71414 881.05478 682.45303 883.46551 679.74674 C 888.20904 674.42173 892.00067 663.81935 892.00067 655.87565 C 892.00067 640.17178 901.32766 611.49938 909.81903 601.10221 C 918.59399 590.35777 919.74298 588.095 921.39325 578.3112 C 924.00302 562.83875 919.34471 539.87207 912.00067 532.00651 C 910.03521 529.90147 904.83599 527.17557 899.3327 525.36393 C 887.22683 521.37883 874.45791 514.9516 860.24872 505.6901 C 853.92232 501.56663 843.44197 496.30676 836.74872 493.89713 C 830.10395 491.50501 821.32464 488.05542 817.24091 486.23112 L 809.81708 482.91471 L 810.90692 473.1237 C 811.50699 467.739 812.26873 455.8333 812.59833 446.66667 C 812.92795 437.50005 813.82755 426.7691 814.59833 422.81901 C 815.3691 418.86892 816.00067 413.41707 816.00067 410.70573 C 816.00067 406.23965 816.67999 405.3089 823.23309 400.79557 C 831.95936 394.78558 850.88796 375.27463 857.3327 365.64713 C 861.56374 359.32672 862.37407 358.73947 866.00067 359.36979 C 868.20067 359.75216 873.00002 359.27921 876.66669 358.31901 C 882.24406 356.8584 884.58487 356.88 890.98895 358.44792 C 897.87871 360.13471 898.9828 360.09996 902.03778 358.09831 C 909.73776 353.05307 926.49539 325.43741 924.93231 320.36979 C 924.53029 319.06637 922.5712 314.09935 920.5788 309.33268 C 916.17253 298.79131 909.24225 275.52617 905.22528 257.78581 C 903.09462 248.37608 902.1586 239.44712 901.91278 226.20182 C 901.5715 207.81348 901.55282 207.70917 897.27606 201.53385 C 894.91399 198.12322 888.83309 191.73268 883.76434 187.33268 C 875.76173 180.38591 874.66254 178.89515 875.41278 176.00065 C 875.88797 174.16731 876.3905 171.97548 876.52997 171.13151 C 876.66942 170.28752 879.00762 167.13573 881.72528 164.1276 C 884.44295 161.1195 886.66669 158.10939 886.66669 157.43815 C 886.66669 156.7669 887.03015 155.26996 887.47528 154.11003 C 888.15397 152.34139 887.0786 152.00065 880.80926 152.00065 C 876.6975 152.00065 873.3327 151.75472 873.3327 151.45573 C 873.3327 151.15673 874.8541 147.98327 876.71161 144.40299 C 878.56911 140.82276 880.21846 136.11669 880.37762 133.94596 L 880.66669 130.00065 L 869.69989 130.22135 C 860.98991 130.39653 857.14944 131.16551 851.03778 133.96354 C 846.80524 135.90127 842.13942 138.57487 840.67059 139.90495 C 839.20176 141.23503 835.39912 142.65188 832.21942 143.05143 C 825.81231 143.85654 826.67975 144.90248 820.85419 129.33268 C 819.61947 126.03268 816.93034 121.31253 814.87762 118.84245 L 811.1452 114.35026 L 806.65497 116.67253 C 799.92062 120.15496 788.93964 131.79729 785.25848 139.35612 C 782.07455 145.89405 781.69893 146.16563 768.66669 151.43815 C 757.76329 155.84942 755.39302 157.30413 755.65692 159.41667 C 755.90643 161.41386 753.33299 163.44259 744.31903 168.35612 C 722.05763 180.49083 698.42357 202.14249 678.95184 228.23893 C 669.35584 241.09973 667.16658 243.36192 666.37567 241.23698 C 665.24739 238.20555 666.42154 234.35874 668.14911 235.42643 C 669.77992 236.43432 670.31 234.31017 671.21942 223.12565 L 671.99676 213.58268 L 665.60809 212.70378 L 659.21942 211.82487 L 660.84833 194.24674 C 674.55373 46.284591 674.44125 48.342798 669.78192 29.332682 C 667.86672 21.518643 663.4017 10.666666 662.10223 10.666666 z M 609.09637 281.33463 L 614.21551 281.34245 C 618.48759 281.34949 619.70406 282.00207 621.57684 285.29362 C 622.81096 287.46266 625.26906 289.60165 627.03778 290.04557 C 629.38574 290.63487 631.08551 292.85857 633.33661 298.28971 C 636.31636 305.47887 636.33547 305.79036 633.9538 307.5319 C 632.59839 308.52299 631.14381 309.33463 630.72137 309.33463 C 630.29894 309.33463 626.81464 306.58799 622.97723 303.23112 C 617.62772 298.55147 616.00067 296.24188 616.00067 293.33268 C 616.00067 291.19595 614.49139 287.74632 612.54755 285.4362 L 609.09637 281.33463 z M 805.16278 293.75065 C 806.50702 293.8107 809.94182 294.98209 813.42645 296.60417 C 817.4089 298.45795 822.89533 299.97998 825.61981 299.98698 C 829.24757 299.99652 831.8362 301.10684 835.28778 304.13737 C 837.87997 306.41334 840.00067 309.12182 840.00067 310.15495 C 840.00067 312.27108 830.17769 318.8662 817.55536 325.22721 C 803.294 332.41425 802.79481 332.5092 801.19989 328.3151 C 796.90873 317.03078 796.77431 314.12501 800.07489 304.05729 C 801.82401 298.72201 803.9135 294.10484 804.71942 293.79557 C 804.82016 293.75692 804.97075 293.74207 805.16278 293.75065 z M 842.06317 342.09635 C 842.8055 342.07444 842.55034 342.7262 841.80731 343.88346 C 837.26214 350.96264 831.32189 358.24039 823.48309 366.33268 C 819.04335 370.91602 814.97245 374.66667 814.43817 374.66667 C 813.34378 374.66667 810.05655 359.26127 810.8327 357.77018 C 811.10788 357.2415 818.68917 353.12476 827.67841 348.62174 C 836.81841 344.0432 840.82595 342.13288 842.06317 342.09635 z M 595.77216 581.35026 C 596.26385 581.36006 597.66348 584.51006 598.88153 588.35026 C 600.09957 592.19044 600.97551 595.45719 600.8288 595.60807 C 600.6821 595.75895 598.86178 594.52666 596.78387 592.86979 C 593.54205 590.28483 593.13885 589.25143 593.94208 585.5944 C 594.4569 583.25037 595.28042 581.34126 595.77216 581.35026 z " />
    <g
       inkscape:groupmode="layer"
       id="layer2"
       inkscape:label="Horse"
       style="display:inline"
       transform="translate(28.688171,10.666666)">
      <path
         id="path3235"
         style="fill:#552200;stroke-width:1.33333"
         d="m 836.87176,673.47917 -4.10156,2.86718 c -2.25662,1.5769 -6.71298,4.99428 -9.90234,7.59375 l -5.79883,4.72657 0.73047,8.13867 c 0.8642,9.62856 4.90913,20.9806 9.04297,25.38086 1.62599,1.73079 3.333,3.14648 3.79492,3.14648 0.46193,0 3.50734,-1.69601 6.76758,-3.76953 7.59352,-4.82951 16.84008,-15.9332 15.15234,-18.19727 -0.67282,-0.90258 -3.44738,-4.57915 -6.16406,-8.16992 -2.7167,-3.59077 -5.97043,-9.94668 -7.23047,-14.12304 z m -392.7832,81.49414 -3.00976,6.17968 c -1.97972,4.06325 -3.02279,8.67355 -3.04493,13.45899 l -0.0332,7.27734 7.39649,3.67969 c 7.64824,3.8054 19.7109,7.52241 24.91015,7.67578 2.12412,0.0627 3.22336,-0.89725 3.8418,-3.36133 1.19141,-4.74694 1.19858,-11.82727 0.0234,-20.72265 l -0.99024,-7.50391 -6.64062,-0.88086 c -3.65258,-0.48454 -10.19896,-1.98857 -14.54688,-3.3418 z m 306.55664,23.34765 -4.99023,0.82422 c -2.74407,0.45358 -10.23765,0.83178 -16.6543,0.83985 l -11.66797,0.0156 -0.008,3.66602 c -0.009,4.01331 2.86209,24.6707 3.55078,25.54101 1.85015,2.33804 24.13787,3.38241 33.50977,1.57031 3.14572,-0.60824 6.11622,-1.50097 6.59961,-1.98437 1.30322,-1.30321 -1.89187,-12.28781 -6.38868,-21.9668 z m -515.13672,9.37305 c -5.73536,0.009 -9.98661,0.29186 -10.32226,0.75 -1.559,2.1278 -2.54767,21.24896 -1.1836,22.89258 0.73465,0.8852 5.68485,2.86769 11,4.40429 11.56786,3.34427 14.34796,3.84104 22.81836,4.07813 l 6.48633,0.18164 -0.95117,-7.61914 c -0.52358,-4.19052 -2.10156,-11.34008 -3.50586,-15.88672 l -2.55273,-8.26562 -15.64844,-0.44727 c -2.15165,-0.0615 -4.22884,-0.0908 -6.14063,-0.0879 z"
         transform="translate(-28.688171,-10.666666)" />
      <path
         id="path3237"
         style="display:inline;fill:#aa4400;stroke-width:1.33333"
         d="m 809.0788,123.70573 -5.09766,4.97851 c -2.80418,2.73821 -6.67866,8.49859 -8.60938,12.80079 -4.2996,9.58082 -7.81286,25.75045 -6.78515,31.22851 0.91228,4.86288 15.03924,33.95313 16.48828,33.95313 0.55937,0 2.15416,-1.95066 3.54492,-4.33399 1.39078,-2.38334 6.3948,-8.3564 11.11914,-13.27539 8.86029,-9.22523 9.83693,-12.46121 4.00977,-13.28711 -2.95964,-0.41947 -3.11511,-1.04275 -3.90235,-15.76953 -0.82143,-15.36608 -3.29472,-24.89044 -8.54687,-32.90625 z m 59.35351,10.87109 c -4.21801,-0.0171 -12.30215,2.51677 -17.21875,5.63477 l -6.4668,4.10156 5.73829,2.92773 5.73632,2.92579 7.63868,-7.41602 c 4.20166,-4.07932 7.11441,-7.62895 6.47265,-7.88867 -0.47123,-0.19071 -1.11927,-0.28199 -1.90039,-0.28516 z m -61.5664,1.42383 c 2.95587,0 6.79289,15.19647 5.50781,21.8125 -0.70616,3.63557 -0.84119,3.51173 -2.89063,-2.66602 -1.1824,-3.56412 -2.72092,-6.48046 -3.41797,-6.48046 -0.69705,0 -2.71282,3.6 -4.48046,8 -5.88829,14.65681 -5.39597,13.75705 -5.46094,10 -0.13871,-8.0206 7.79399,-30.66602 10.74219,-30.66602 z m 19.80078,13.01172 v 8.71875 c 0,4.79481 -0.36347,9.6662 -0.8086,10.82617 -0.6068,1.58129 0.0348,2.10938 2.56836,2.10938 3.44375,0 8.0471,4.52691 9.60938,9.44921 1.84515,5.81353 12.23872,8.20047 19.45508,4.46875 4.08047,-2.11008 11.73112,-9.67689 11.80273,-11.67382 0.0215,-0.59941 -1.31094,-0.66072 -2.96094,-0.13477 -5.39906,1.72101 -11.8742,0.68824 -17.92773,-2.85937 -5.92392,-3.47164 -7.34479,-6.25032 -1.63281,-3.19336 4.21817,2.25749 18.12927,0.89794 24.5996,-2.4043 5.17712,-2.64222 10.93008,-7.8197 9.8418,-8.85742 -0.30106,-0.28706 -4.14689,0.0597 -8.54687,0.76953 -9.54818,1.54049 -16.1809,0.68209 -24.5,-3.17188 -3.39203,-1.57141 -9.61732,-3.12632 -13.83399,-3.45312 z m -68.84571,20.53516 c -0.71505,0.0702 -3.10912,1.06842 -5.78125,2.43164 -5.18545,2.6454 -5.49427,3.11496 -4.66601,7.09375 l 0.88672,4.25976 -3.00977,-2.91601 -3.01172,-2.91797 -5.8789,4.04492 c -3.74294,2.57521 -5.60297,4.72653 -5.11914,5.91797 0.41802,1.02942 1.12323,2.77109 1.56835,3.87109 0.44512,1.1 0.2181,2 -0.5039,2 -0.722,0 -2.05974,-0.9 -2.97266,-2 -2.30128,-2.77288 -2.79113,-2.62334 -9.08008,2.75977 -5.5385,4.74074 -5.5514,4.77491 -3.47461,8.79101 2.62956,5.08503 1.88446,5.88021 -2.37304,2.53125 l -3.33594,-2.625 -4.45312,4.59571 -4.45313,4.59375 2.23047,4.67773 c 2.27112,4.7626 1.27992,6.29838 -1.72656,2.67578 -2.46765,-2.97335 -4.49604,-2.45269 -7.78516,1.9961 -2.80563,3.79479 -2.84798,4.202 -0.82031,8.12304 2.59735,5.02272 1.79889,6.20256 -2.27149,3.35156 -4.11108,-2.87951 -4.34495,-2.80173 -7.13281,2.375 -2.39526,4.44772 -2.38715,4.56331 0.55274,8.30079 3.43658,4.36892 1.82136,5.695 -3.04883,2.5039 -3.28635,-2.15329 -3.38352,-2.10709 -6.74805,3.22266 -4.05456,6.42283 -4.06512,6.52968 -1.08008,9.82812 2.26,2.49727 2.20919,2.56311 -1.63281,2.10547 -3.48651,-0.41531 -4.35068,0.22323 -7.1543,5.29297 l -3.1875,5.76563 3.73633,3.90039 c 4.09059,4.26963 2.39069,5.28128 -3.99219,2.37304 -2.92636,-1.33334 -3.69931,-1.12026 -6.01953,1.66602 -3.2343,3.88399 -3.34323,5.51299 -0.71484,10.5957 2.51228,4.85822 0.80407,5.02952 -4.62305,0.46289 -3.97462,-3.34441 -4.24935,-3.38986 -7.53906,-1.23437 -2.11761,1.38751 -3.12282,2.99969 -2.64453,4.24609 0.42418,1.10539 0.77148,2.51572 0.77148,3.13281 0,1.81386 6.76848,9.32618 8.40235,9.32618 0.82355,0 5.43427,-4.05002 10.24609,-9 6.66097,-6.85227 10.29418,-12.18251 15.22461,-22.33399 8.51746,-17.53706 14.08053,-26.80247 24.81445,-41.33203 13.14252,-17.78981 32.66768,-37.58504 47.31641,-47.96875 11.77693,-8.34805 12.77817,-9.39595 11.98242,-12.56641 -0.47749,-1.9025 -1.06283,-3.65268 -1.29883,-3.88867 -0.0295,-0.0295 -0.0971,-0.0393 -0.19922,-0.0293 z m 3.74024,15.10742 c -10.14229,3.86892 -35.22832,27.11029 -49.39063,45.75976 -10.31219,13.57952 -23.00182,34.65096 -29.45898,48.91797 -7.70359,17.02098 -9.02191,19.02536 -20.1543,30.6211 -10.30483,10.73374 -10.55664,11.15541 -10.55664,17.64257 0,8.26532 -2.78969,17.77588 -7.14258,24.35352 -2.73936,4.13946 -3.13883,5.84972 -2.26758,9.71289 0.58165,2.57894 1.39393,5.23383 1.80469,5.89844 1.57948,2.55564 28.99301,15.23792 42.96094,19.875 23.58686,7.83037 37.73299,9.93405 62.64453,9.3164 13.24234,-0.32832 23.95739,-1.27545 28.25195,-2.49804 3.80521,-1.08325 11.18927,-3.93924 16.41016,-6.34571 l 9.49219,-4.375 -0.90821,-5.43359 c -0.49966,-2.98838 -4.16237,-18.93365 -8.13867,-35.43359 -3.97627,-16.49997 -7.57566,-31.64743 -8,-33.66016 -0.46895,-2.22438 0.36383,-6.69689 2.125,-11.40625 2.31489,-6.18992 2.61764,-8.48816 1.5,-11.42773 -0.7694,-2.0237 -1.40039,-7.59106 -1.40039,-12.3711 0,-10.13069 -1.15234,-10.44416 -7.5664,-2.05859 -6.4797,8.47131 -7.57773,16.47375 -6.46094,47.05859 0.98548,26.98863 0.0215,37.39082 -4.23633,45.6836 -3.13455,6.10491 -12.48825,15.51008 -18.3418,18.4414 l -5.39453,2.69922 4.79297,-5.14648 c 12.74141,-13.68148 14.67476,-21.19376 15.9082,-61.8125 0.54558,-17.96664 1.66883,-34.83731 2.49414,-37.49024 2.31086,-7.42792 7.03356,-13.54457 13.00586,-16.8418 5.40498,-2.98395 5.43632,-3.04408 6.3086,-12.66601 0.48208,-5.31756 1.36637,-11.46797 1.96679,-13.66797 0.95695,-3.50613 0.44364,-4.74081 -4.1582,-10 -6.26057,-7.15486 -13.50544,-19.50571 -19.75586,-33.67773 -3.05196,-6.91998 -5.14872,-10.1201 -6.33398,-9.66797 z m 106.96289,2.3789 -3.81836,3.04297 c -3.7583,2.99678 -13.6558,6.31673 -15.47656,5.19141 -1.65372,-1.02206 -17.7736,17.25171 -21.78516,24.69531 l -3.89062,7.21875 8.55664,7.32227 c 4.70616,4.02708 14.26832,13.05967 21.24804,20.07422 10.5713,10.62394 13.63512,14.70525 18.35352,24.4375 5.88458,12.13771 12.24197,30.30197 12.27148,35.0625 0.009,1.5098 -0.86472,3.91048 -1.9414,5.33398 -2.14127,2.83101 -2.471,8.15206 -1.17578,18.93555 0.83654,6.96507 0.88547,7.0267 6.98828,8.90625 6.99918,2.15559 10.85779,2.47316 12.87695,1.05859 0.76904,-0.53877 2.11433,-3.37917 2.98828,-6.3125 1.30432,-4.37781 8.69735,-16.93961 14.16211,-24.0625 0.8179,-1.06607 -1.16958,-4.63127 -6.08398,-10.91211 -6.97195,-8.91039 -7.49477,-10.14412 -11.65625,-27.50976 -7.08984,-29.58521 -8.31495,-38.57238 -7.39063,-54.1836 l 0.82813,-14 -4.1836,-5.5918 c -2.30112,-3.07615 -7.93844,-8.54408 -12.52734,-12.15039 z m -27.85156,18.84766 c 1.46997,0.0177 7.25664,0.64908 13.99414,1.54102 7.69996,1.01932 16.17576,1.86692 18.83593,1.88281 6.87132,0.0411 8.50234,2.63544 7.85743,12.5039 -0.96432,14.75624 -0.20894,25.372 2.47851,34.83789 1.4544,5.12279 2.44065,9.51833 2.19141,9.76758 -0.24925,0.24925 -2.57178,-3.34176 -5.16016,-7.98047 -2.7759,-4.97472 -5.08399,-11.30465 -5.62695,-15.43359 -0.95967,-7.29772 -1.84279,-8.2947 -4.50586,-5.08594 -2.56139,3.08628 -8.67215,3.76093 -13.98047,1.54297 -6.39127,-2.67045 -9.69289,-9.86515 -7.62305,-16.60937 1.32188,-4.30711 1.0888,-4.94429 -3.8789,-10.58789 -2.90742,-3.30302 -5.12973,-6.16102 -4.9375,-6.34961 0.024,-0.0236 0.14547,-0.0318 0.35547,-0.0293 z m -76.80664,1.21875 c 0.088,-0.003 0.13476,0.009 0.13476,0.041 0,0.2555 -3.59555,3.28955 -7.99023,6.74218 -13.67789,10.74597 -21.68868,23.95796 -37.95508,62.60157 -4.86906,11.5672 -11.37442,25.34124 -14.45508,30.60742 -6.79097,11.60879 -20.55087,25.5369 -30.36914,30.74023 l -7.23047,3.83203 9.12305,-9.16601 c 14.67596,-14.74259 25.36764,-32.27882 38.67383,-63.43164 16.99687,-39.79361 27.04904,-53.59225 43.625,-59.89063 3.16578,-1.20291 5.82728,-2.05326 6.44336,-2.07617 z m 85.18554,3.14844 c -0.49747,0.0323 -0.20267,0.50371 0.56836,1.43554 1.92712,2.32904 16.73439,9.64683 19.52344,9.64844 1.10223,6.4e-4 1.49303,-0.82454 1,-2.10937 -0.44513,-1.15997 -0.81055,-2.58248 -0.81055,-3.16211 0,-0.57962 -2.42209,-1.44063 -5.38281,-1.91407 -2.96072,-0.47343 -7.78089,-1.6871 -10.71289,-2.69726 -2.39802,-0.82619 -3.68808,-1.23348 -4.18555,-1.20117 z m -31.21875,46.34179 c -0.22484,-0.0143 -0.40333,0.0167 -0.53125,0.0957 -1.82656,1.12888 -0.22651,23.21753 1.87305,25.85937 2.39802,3.01736 11.74858,6.72606 17.03516,6.75781 4.17753,0.0251 5.77883,1.03257 11.17578,7.0293 3.46488,3.85 7.23223,8.95065 8.37109,11.33399 1.13887,2.38331 2.23832,4.33398 2.44336,4.33398 0.20504,0 1.01921,-1.20668 1.80859,-2.68164 1.18097,-2.20666 0.32997,-4.82189 -4.80273,-14.75977 -3.43077,-6.64258 -9.24935,-15.37158 -12.92969,-19.39843 -7.35037,-8.04249 -21.07067,-18.35508 -24.44336,-18.57032 z m -90.65429,44.43555 c 0.18559,0.007 0.43822,0.10254 0.7539,0.27149 3.93227,2.10447 9.68575,14.98683 9.04102,20.24218 -0.30101,2.45356 -0.64241,3.52943 -0.75977,2.39063 -0.11733,-1.13879 -2.5991,-7.00235 -5.51367,-13.0293 -3.56946,-7.38116 -4.52372,-9.91338 -3.52148,-9.875 z m 173.75,8.43945 c 1.10589,0.0323 2.16058,0.79177 3.51562,2.28907 3.60861,3.98745 3.98675,9.71974 0.96094,14.57812 -3.52005,5.65194 -6.97976,5.87733 -5.88086,0.38281 1.04815,-5.24066 -0.42508,-10.71484 -2.88281,-10.71484 -2.67163,0 -2.48623,-1.79202 0.46289,-4.46094 1.56048,-1.41222 2.7183,-2.10649 3.82422,-2.07422 z m -183.51563,8.09766 c 0.36555,-0.0212 1.94578,1.21206 3.82422,3.01172 5.82433,5.58005 9.64474,15.51282 9.16406,23.82812 l -0.40039,6.92969 -0.96484,-5.33203 c -0.53021,-2.93333 -3.38087,-10.32906 -6.33399,-16.43359 -2.9531,-6.10455 -5.36914,-11.4667 -5.36914,-11.91602 0,-0.0562 0.0279,-0.0849 0.0801,-0.0879 z m -8.60742,14.99805 c 0.56126,0.045 1.77066,1.26503 3.59765,3.68359 6.19779,8.20446 9.60784,27.30558 6.26368,35.08789 -0.98649,2.2957 -1.15933,2.1115 -1.24805,-1.33203 -0.13093,-5.08373 -4.83661,-25.05603 -7.5,-31.83398 -1.48451,-3.7779 -1.8349,-5.66331 -1.11328,-5.60547 z m 164.04883,4.50976 -3.03321,5.79688 c -1.66857,3.1888 -3.06062,6.28462 -3.09375,6.8789 -0.0332,0.59427 2.18946,0.89557 4.93946,0.66797 3.97211,-0.32876 5.08574,-1.01531 5.41601,-3.33593 0.22865,-1.60664 -0.62931,-4.51598 -1.90625,-6.46485 z M 383.93817,353.2819 c -17.0627,0.0667 -51.93834,1.46634 -57.9375,2.6582 -4.39997,0.87415 -14.05699,4.54563 -21.45898,8.15821 l -13.45899,6.56836 -13.875,-0.004 c -16.89562,-0.005 -31.62064,-2.47177 -55.6289,-9.32031 -23.18338,-6.61327 -34.42558,-8.52019 -45.16407,-7.65821 -24.54795,1.97048 -43.94835,22.78884 -59.93945,64.31641 -3.38864,8.79997 -8.26301,21.40003 -10.83008,28 -11.551654,29.69963 -36.383984,68.63907 -57.218748,89.72266 l -6.972656,7.05468 3.359375,1.27735 c 6.956578,2.6449 11.75098,0.56723 20.625,-8.93946 10.161669,-10.88608 18.150948,-24.70882 40.716799,-70.44921 24.15821,-48.96815 32.44269,-63.48914 43.08203,-75.51368 9.4493,-10.67958 17.58754,-15.85567 24.69141,-15.70507 4.96157,0.1052 5.10607,0.2047 1.75781,1.21289 -16.93721,5.09985 -27.95879,21.49633 -49.74414,74.00586 -20.33848,49.0221 -32.667247,70.70631 -51.068362,89.82031 l -9.453125,9.82031 12.982422,-0.52148 c 16.106875,-0.64694 20.132641,-2.81998 30.332035,-16.3711 9.10122,-12.09208 16.40536,-27.72134 30.64062,-65.5664 12.42879,-33.04248 18.31154,-45.91052 25.43359,-55.63672 5.9399,-8.11177 7.42421,-7.33284 1.82813,0.95898 -8.77361,13.00004 -11.97083,23.86324 -16.07227,54.60352 -2.59431,19.44457 -7.1844,36.80369 -11.48242,43.42969 l -2.07812,3.20312 6.20508,-0.84961 c 9.04268,-1.23944 20.509,-7.14962 27.56835,-14.20898 8.10341,-8.1034 11.13177,-16.84895 10.08594,-29.12696 -2.43097,-28.53949 -2.44365,-30.27818 -0.30078,-39.41797 2.8512,-12.1609 9.22231,-23.8467 17.54688,-32.18164 14.2533,-14.27103 29.75555,-17.07828 47.00586,-8.51562 8.20051,4.07057 9.6794,4.42547 11.79687,2.83203 2.76246,-2.07908 19.92448,-10.9375 21.18945,-10.9375 0.45927,0 -3.81073,4.33843 -9.48828,9.64063 -12.76787,11.92378 -22.25667,24.29671 -26.20312,34.16796 -2.61242,6.53443 -3.00338,9.89033 -2.96485,25.52344 0.0383,15.54774 0.6334,20.48403 4.35938,36.23242 l 4.3125,18.23243 -3.83594,8.43554 c -6.02181,13.24261 -22.9018,41.58686 -35.12305,58.97656 -19.5383,27.80126 -22.94137,31.8936 -31.46093,37.82813 -9.28649,6.46876 -11.51108,11.15892 -10.76758,22.69922 0.34683,5.38336 0.83574,6.32432 3.48047,6.69922 4.07612,0.57778 8.71897,-2.61622 13.78906,-9.48438 3.9552,-5.35783 4.10491,-5.4335 3.20508,-1.61914 -2.22626,9.43718 -9.79814,19.33399 -14.79297,19.33399 -2.72973,0 -4.61133,4.40306 -4.61133,10.79101 0,4.92909 0.72748,6.31493 5.82227,11.08789 5.72166,5.36028 12.6893,15.36298 18.13086,26.0293 2.50769,4.9155 2.5872,5.81347 0.87304,9.91601 -1.03663,2.481 -5.01013,7.9616 -8.83008,12.17969 -6.49618,7.17333 -11.89963,16.393 -11.96679,20.41797 -0.0161,0.96532 3.42005,-0.91595 7.63672,-4.17969 13.37266,-10.35063 14.69223,-9.57009 3.33398,1.97071 -10.28185,10.4471 -11,11.54379 -11,16.81445 0,3.10135 0.31876,5.63867 0.70899,5.63867 0.39018,0 5.41785,-3.2987 11.17382,-7.33203 5.756,-4.03333 10.87659,-7.33398 11.37891,-7.33398 0.50232,0 -3.92467,4.65454 -9.83984,10.34375 -9.77391,9.40048 -10.75586,10.8101 -10.75586,15.44531 0,2.80524 0.45,4.86828 1,4.58594 3.97052,-2.03824 24.09279,-11.42251 25.84765,-12.05469 1.96881,-0.7093 2.00336,-1.54338 0.35547,-8.55274 -1.72124,-7.32131 -1.34546,-16.43359 0.67774,-16.43359 0.505,0 1.63284,3.45682 2.50586,7.68359 1.94653,9.42425 4.36318,13.04009 10.71484,16.0293 4.54505,2.13899 5.79702,3.85152 10.92187,14.95313 0.5078,1.09997 3.85936,2.6928 7.44922,3.53906 7.92616,1.8685 10.94029,2.04512 16.36133,0.96094 5.60385,-1.12078 5.45354,-4.34918 -0.74023,-15.96485 -4.17706,-7.83351 -5.03317,-10.92323 -5.75977,-20.77929 -0.7306,-9.91044 -1.37363,-12.21319 -4.47266,-16 -13.36222,-16.32793 -15.2634,-19.70633 -20.85156,-37.06055 -4.85256,-15.06986 -5.40196,-17.93966 -4.13086,-21.58594 0.80634,-2.31309 1.85417,-11.89976 2.33008,-21.30273 0.66948,-13.22778 1.34881,-17.51078 2.99609,-18.92578 1.171,-1.00586 8.72827,-4.73363 16.79493,-8.28516 19.06498,-8.39377 27.92655,-13.63852 43.14062,-25.53125 6.86069,-5.36297 13.76138,-10.03627 15.33399,-10.38477 1.57259,-0.34849 6.90112,-1.53279 11.84179,-2.63281 11.71166,-2.60753 28.29895,-9.14736 35.00196,-13.79883 11.43296,-7.93377 20.93463,-23.35488 38.35156,-62.25586 9.12189,-20.37391 16.77267,-33.40825 23.08594,-39.32617 5.34914,-5.01416 4.98993,-3.5006 -0.94727,4 -5.87931,7.42746 -12.6532,23.6138 -15.5957,37.26172 -1.49335,6.92642 -2.4652,12.9967 -2.16016,13.49023 0.30504,0.49356 3.59012,1.30073 7.30078,1.79297 7.66725,1.01711 15.68624,3.49671 36.64649,11.33399 14.76435,5.52054 73.27545,22.78906 77.21679,22.78906 2.58865,0 2.99939,-7.83132 0.44922,-8.5625 -8.78081,-2.51766 -15.18533,-6.00353 -23.66601,-12.88281 -18.67792,-15.15102 -32.01624,-18.96658 -48.72657,-13.9375 -3.56564,1.07311 -6.72848,1.70511 -7.02929,1.40429 -1.07379,-1.07375 5.42551,-20.18607 9.98242,-29.35546 2.55111,-5.13333 6.99414,-11.75571 9.87305,-14.7168 2.87887,-2.96109 5.23437,-5.71689 5.23437,-6.12305 0,-0.40617 -2.52116,-1.4931 -5.60156,-2.41601 -12.15619,-3.64209 -19.60853,-11.68542 -23.04297,-24.8711 -1.0901,-4.18515 -2.14139,-7.72798 -2.33594,-7.87304 -0.19456,-0.14507 -10.40419,-2.23595 -22.6875,-4.64649 l -22.33203,-4.38281 v -6.97852 c 0,-15.16633 6.03443,-41.05954 13.39063,-57.45507 2.16817,-4.83249 3.9414,-9.1005 3.9414,-9.48633 0,-0.33124 -3.70695,-0.4578 -9.39453,-0.43555 z m 268.61719,49.33398 c -0.36352,0.0362 -0.55002,0.18163 -0.54883,0.43946 0.0192,4.14794 3.00863,11.7 5.05273,12.76758 1.25125,0.6535 10.37346,3.89832 20.27344,7.20898 20.43424,6.83342 41.92994,11.87178 63.33399,14.84766 8.06665,1.12154 16.16666,2.27541 18,2.56445 1.83331,0.28904 11.82256,0.60716 22.19726,0.70703 l 18.86328,0.18164 1.39453,-8.33203 c 3.44935,-20.61067 3.48129,-21.5221 0.72852,-20.41016 -18.81639,7.60077 -30.375,9.42328 -59.18359,9.33008 -20.20624,-0.0653 -27.19762,-0.61668 -38.66602,-3.04883 -15.97435,-3.38771 -31.56806,-8.27789 -43.66797,-13.69531 -4.00132,-1.79148 -6.68677,-2.66913 -7.77734,-2.56055 z m -29.60156,47.29688 c -0.18959,-0.0244 -0.28711,-0.003 -0.28711,0.0645 0,0.27921 1.86861,5.49767 4.15234,11.59766 4.64282,12.40131 29.18164,85.21126 29.18164,86.58594 0,1.39902 -20.33072,6.50586 -25.90039,6.50586 -4.12023,0 -4.89842,0.40068 -4.21875,2.17187 0.45835,1.19442 1.51529,4.88195 2.34961,8.19531 l 1.51758,6.02539 18.68164,-0.79882 c 12.74186,-0.54495 19.17623,-1.34906 20.24023,-2.5293 0.85796,-0.95171 2.2931,-4.31821 3.18946,-7.48047 1.60009,-5.64502 8.93453,-15.15484 13.62304,-17.66406 2.1074,-1.12786 2.02778,-0.47237 -0.69336,5.73633 -1.68976,3.85547 -4.10655,10.15983 -5.37109,14.00976 -2.2552,6.86602 -2.23706,7.2486 0.99414,20 1.81182,7.15001 5.72264,18.13213 8.68945,24.4043 7.46258,15.77656 9.01447,22.52281 7.09375,30.84375 -2.70382,11.71373 -1.97864,17.29078 3.80469,29.25 8.80155,18.2005 7.4497,22.42053 -13.00586,40.63281 -14.00617,12.47017 -18.90663,17.89808 -16.0918,17.82227 0.9699,-0.0261 5.36368,-0.9161 9.76368,-1.97852 12.10516,-2.92292 14.38647,-2.23876 4.66601,1.40039 -15.06721,5.64092 -19.52847,8.54987 -21.13281,13.77735 -0.79539,2.59156 -1.2546,4.90555 -1.01953,5.14062 0.23506,0.23507 4.56526,-0.49588 9.62305,-1.62305 5.05774,-1.12716 10.69596,-2.38128 12.52929,-2.78711 5.10963,-1.13106 1.55186,1.51678 -4.66601,3.47266 -8.77322,2.75968 -20.66602,9.21875 -20.66602,11.22266 0,1.02946 -0.36302,2.81657 -0.80664,3.97265 -0.66055,1.72134 0.76133,1.51079 7.85742,-1.16015 4.76585,-1.79387 11.66329,-3.6584 15.32813,-4.14453 l 6.66406,-0.88477 3.41211,-9.95117 c 4.29039,-12.51213 10.55546,-23.53875 11.29883,-19.88672 0.28244,1.38753 -1.09606,7.47432 -3.06446,13.52539 -4.92637,15.14434 -4.54235,16.58969 5.1875,19.4707 9.69002,2.86925 11.71963,4.80354 12.69336,12.09961 0.7049,5.28164 1.117,5.77799 5.42969,6.55274 4.55205,0.81773 12.78026,0.39102 20.49414,-1.06446 3.7084,-0.69971 3.80329,-0.91342 2.9961,-6.80273 -0.45835,-3.34404 -3.20616,-11.23062 -6.10547,-17.52539 -6.92186,-15.02809 -10.00528,-32.1336 -8.84571,-49.06445 0.46279,-6.75712 1.18351,-13.17617 1.60157,-14.26563 0.52003,-1.35519 -0.71818,-2.59973 -3.91993,-3.9375 -5.79613,-2.42179 -8.49932,-6.40911 -9.61132,-14.17773 l -0.85938,-6 4.04688,5.90429 c 5.49764,8.01962 7.55405,8.991 10.26757,4.84961 1.99659,-3.04712 2.00688,-4.65844 0.11914,-19.70312 -4.14025,-32.99671 -4.11194,-36.01784 0.49219,-53.7168 2.62549,-10.0927 4.44269,-20.9234 4.92188,-29.33398 l 0.75976,-13.33399 6.66602,-5.33203 c 11.52958,-9.22404 20.72165,-24.18556 37.6875,-61.33398 l 1.82812,-4 -21.60351,-0.875 c -32.93839,-1.33471 -58.69562,-5.74564 -92.26953,-15.80079 -20.12282,-6.02662 -25.95738,-8.03077 -34.08203,-11.70507 -8.46625,-3.8288 -14.30379,-6.20207 -15.63086,-6.37305 z m -348.82813,10.81641 c 0.45065,-0.0373 0.25251,1.97376 -0.6543,6.09375 -0.70739,3.21394 -2.54493,16.04312 -4.08203,28.50976 -4.21987,34.22566 -9.17148,47.02621 -25.42383,65.71289 -7.57996,8.71532 -22.68238,23.01257 -32.60351,30.86524 -1.45133,1.14874 4.00821,-4.93934 12.13281,-13.5293 17.33884,-18.33198 27.82794,-32.93918 32.09375,-44.69141 1.81916,-5.0117 3.875,-15.62801 5.04688,-26.07226 2.18556,-19.47882 2.49906,-20.81103 8.66211,-36.70899 2.59651,-6.6979 4.24871,-10.1318 4.82812,-10.17968 z m 522.1582,28.11718 c -0.175,0.0148 -0.29749,0.0584 -0.36132,0.12891 -0.51063,0.56411 -1.98262,4.32412 -3.27149,8.35742 -1.28888,4.03333 -4.06803,11.17792 -6.17578,15.87695 -2.10776,4.69907 -3.58749,8.78946 -3.28906,9.0879 2.10797,2.10793 21.52841,7.32711 33.52929,9.01171 14.00932,1.96656 30.56831,5.85161 29.5,6.91993 -0.28769,0.2877 -4.65421,-0.0785 -9.70312,-0.8125 -5.04893,-0.73392 -15.58942,-1.97472 -23.42383,-2.75782 -7.91085,-0.79073 -18.45592,-2.85713 -23.7168,-4.64648 l -9.47265,-3.2207 -3.85938,6.27148 c -2.12223,3.44912 -3.87445,6.87019 -3.89453,7.60352 -0.104,3.79637 25.00865,8.68875 51.1875,9.97265 19.51598,0.95714 22.41197,1.4363 33.99414,5.61133 l 12.66211,4.5625 0.85742,6.00391 c 0.47235,3.30213 2.17386,9.05711 3.7793,12.78906 2.67831,6.22585 2.75358,7.09966 0.92578,10.58984 -5.44258,10.39282 -11.43761,13.83411 -25.08594,14.39844 -6.1223,0.25316 -12.33216,0.94626 -13.79882,1.53906 -2.51152,1.01512 -2.47336,1.1314 0.66601,2.00586 1.83334,0.51067 5.58399,0.98746 8.33399,1.06055 2.74997,0.0731 5,0.73347 5,1.4668 0,0.78591 -4.72587,1.33398 -11.50977,1.33398 -11.46986,0 -11.52459,0.0164 -16,4.76172 -2.46993,2.61888 -4.49023,5.31888 -4.49023,6 0,0.68112 2.85065,1.27219 6.33398,1.31445 3.48333,0.0423 8.73268,0.5251 11.66602,1.07227 4.49235,0.83801 3.12647,1.15415 -8.66602,2.00586 -11.54492,0.83384 -14.52608,1.50381 -17,3.82617 -3.81184,3.57833 -3.84341,6.35156 -0.0703,6.35156 1.61215,0 8.06221,1.56609 14.33203,3.47852 l 11.40039,3.47656 2.66797,-3.75195 c 1.46797,-2.06294 4.92835,-6.17643 7.68945,-9.14258 l 5.01953,-5.39258 -4.01953,8.25781 c -4.44548,9.13214 -4.91026,13.11997 -1.97851,16.9961 2.53428,3.35063 2.47665,7.39631 -0.20313,14.09375 -2.13444,5.33446 -2.10593,5.52953 2.22852,15.4707 4.34876,9.97409 8.50319,16.51367 10.49023,16.51367 0.56645,0 2.02521,-1.10057 3.24219,-2.44531 1.21697,-1.34475 3.09127,-5.39928 4.16406,-9.01172 1.33542,-4.49688 3.84824,-8.4326 7.9707,-12.47852 7.04898,-6.91801 9.54229,-13.59882 10.49415,-28.12695 0.9875,-15.07302 12.62953,-45.0746 20.93164,-53.9375 4.84658,-5.17399 6.97641,-13.34338 7.01171,-26.9043 0.0348,-13.36066 -2.19541,-21.85055 -6.8457,-26.05468 -1.93892,-1.75291 -8.02539,-4.57876 -13.52539,-6.2793 -12.44329,-3.84734 -17.69518,-6.48769 -32,-16.08984 -14.79566,-9.93165 -17.2599,-11.13996 -32.85351,-16.11719 -7.23143,-2.30814 -17.00481,-5.93717 -21.72071,-8.06641 -4.12637,-1.86307 -7.91751,-3.0783 -9.14258,-2.97461 z m -36.95117,17.97071 c 0.42711,-0.015 0.40313,1.15575 -0.16406,3.51562 -3.56037,14.81351 -23.3621,35.90523 -36.10156,38.45313 -2.655,0.531 -4.44714,0.21662 -5.13867,-0.90235 -0.66838,-1.08147 -0.15869,-2.24378 1.37695,-3.13476 13.29539,-7.71398 33.1075,-25.85676 37.49023,-34.33203 1.23246,-2.38331 2.11001,-3.58457 2.53711,-3.59961 z m -376.72851,25.42773 c -2.1038,0.0423 -2.67576,1.45941 -4.81446,6.98633 l -2.8789,7.43555 h 8.33593 c 6.31818,0 9.75624,0.78256 14.21094,3.23437 7.38785,4.06617 7.15744,4.06058 9.6875,0.19922 1.16485,-1.77778 6.09573,-5.18983 10.95899,-7.58398 10.72136,-5.27812 10.15088,-5.64066 -12.17188,-7.7129 -8.76328,-0.81349 -18.03294,-1.82308 -20.59961,-2.24414 -1.15612,-0.18966 -2.02725,-0.32856 -2.72851,-0.31445 z m 312.55273,10.625 3.63086,2.89844 c 4.70327,3.75537 5.15766,5.61473 5.27148,21.56445 0.0524,7.3333 0.59682,20.23467 1.21094,28.66797 0.61411,8.43331 0.92152,15.54122 0.68164,15.79688 -0.23987,0.25566 -1.40422,-2.74369 -2.58593,-6.66602 -1.18176,-3.92232 -3.02784,-16.13089 -4.10352,-27.13086 -1.07567,-10.99997 -2.44036,-23.40569 -3.03125,-27.56641 z m -158.71094,0.26953 c -1.11598,-0.0788 -2.07934,1.13284 -2.98828,3.74024 -1.78925,5.13262 -7.7702,11.78711 -10.5957,11.78711 -4.45991,0 0.22885,1.65201 11.33398,3.99218 15.7532,3.31967 15.34206,3.34767 14.35157,-0.99218 -3.01647,-13.21672 -4.82962,-17.66602 -7.19922,-17.66602 -1.35466,0 -3.3415,-0.33645 -4.41407,-0.74805 -0.16595,-0.0637 -0.32885,-0.10202 -0.48828,-0.11328 z m -157.24023,9.46485 c -5.4449,0.0444 -9.83342,2.53082 -13.25,7.46093 -2.05831,2.97015 -6.6418,7.82565 -10.18359,10.79102 l -6.43946,5.39258 -0.0234,9.54297 c -0.0303,12.47577 -2.94972,25.88509 -7.9746,36.62304 -2.2261,4.75704 -4.29216,8.40513 -4.5918,8.10547 -0.29965,-0.29965 0.91861,-6.23937 2.70703,-13.19922 1.78841,-6.95984 3.64024,-18.29229 4.11523,-25.18359 l 0.86329,-12.5293 -3.21485,0.70508 c -2.45871,0.53969 -13.76988,4.97093 -24.86328,9.74023 -0.17438,0.0749 1.17562,6.021 3,13.2129 3.5704,14.07486 4.36123,31.25509 1.92578,41.81445 -1.055,4.57415 -0.88636,6.67038 0.82617,10.2793 2.47124,5.20772 12.89111,15.30664 15.79297,15.30664 5.49339,0 7.75305,-11.71845 4.1875,-21.71289 -1.57611,-4.4179 -1.55641,-4.84325 0.15625,-3.42188 5.74758,4.77007 9.49148,19.77553 6.77344,27.14453 -0.8686,2.35491 0.0751,3.04557 7.86328,5.76367 12.47656,4.35436 14.99166,6.37274 19.31055,15.50196 4.54679,9.61094 4.60286,10.62512 1.08008,19.5625 -1.5037,3.81488 -2.55435,8.35226 -2.33399,10.08398 0.38248,3.00576 0.76418,2.84951 8.39063,-3.45312 4.39384,-3.63116 8.23551,-6.35433 8.53906,-6.05079 0.30356,0.30356 -2.43027,3.70828 -6.07617,7.56641 -10.3495,10.95189 -11.57325,13.34376 -10.49805,20.51367 l 0.92578,6.16797 4.89258,-4.63086 c 2.69134,-2.54681 7.29031,-6.37193 10.21875,-8.5 4.81469,-3.49878 4.46236,-2.85726 -3.66797,6.69727 -8.19234,9.62743 -10.59036,14.72411 -8.10156,17.21289 1.43242,1.43243 2.55099,1.0523 5.06055,-1.7207 1.29884,-1.43523 6.3403,-3.91767 11.20507,-5.51563 11.11247,-3.65019 15.38615,-5.80313 18.80664,-9.47461 3.75728,-4.03295 3.42723,-4.84513 -2.16211,-5.32031 -3.46082,-0.29424 -5.64946,-1.46711 -7.57617,-4.0586 -1.49041,-2.00465 -2.45037,-3.829 -2.13281,-4.05468 0.31756,-0.22569 7.75618,-0.0865 16.53125,0.31054 l 15.95508,0.72266 0.97851,4 c 0.5381,2.2 1.29963,5.57197 1.69336,7.49414 1.01359,4.94828 12.02362,9.67613 22.75196,9.76953 l 8,0.0684 -0.0996,-5.44726 c -0.0567,-3.12208 -2.58648,-11.66163 -5.92578,-20 -7.40473,-18.48984 -14.26596,-25.83289 -31.68164,-33.90235 -27.8374,-12.89827 -40.41371,-20.92855 -57.38672,-36.64258 -14.60319,-13.51998 -16.92735,-22.97303 -7.95508,-32.36914 2.40979,-2.52359 9.48153,-8.05237 15.71484,-12.28515 17.13259,-11.63402 23.42982,-17.7632 27.84766,-27.11133 3.97384,-8.40866 10.17216,-28.6677 9.09961,-29.74024 -0.32602,-0.32602 -3.52285,1.7194 -7.10352,4.54493 l -6.50976,5.13867 -5.87305,-3.7207 c -7.64143,-4.83993 -14.143,-7.23777 -19.58789,-7.19336 z m 505.0332,8.0625 1.65821,6.00781 c 3.1041,11.23707 7.38724,15.99219 14.40039,15.99219 4.51167,0 4.66826,1.29576 0.61718,5.10156 -3.81795,3.58677 -7.77226,3.70348 -10.83398,0.32031 -3.60788,-3.98667 -5.9691,-12.02218 -5.90234,-20.08789 z m -3.11914,34.05664 c 0.67812,0.0302 1.59302,0.52268 2.53906,1.46875 1.14474,1.14473 0.65145,3.22424 -1.97461,8.33398 -1.92435,3.74445 -5.16132,11.60798 -7.19335,17.47461 -3.607,10.41367 -3.69627,10.531 -3.75977,4.9707 -0.0397,-3.47799 1.75178,-10.34569 4.60156,-17.63867 2.56667,-6.5684 4.66797,-12.55557 4.66797,-13.30469 0,-0.90384 0.44102,-1.33493 1.11914,-1.30468 z"
         transform="translate(-28.688171,-10.666666)" />
      <path
         id="path3305"
         style="display:inline;fill:#ffcc00;stroke-width:1.33333"
         d="m 777.66083,156.00065 c -0.49721,0 -3.4059,0.95362 -6.46289,2.12109 l -5.5586,2.12305 1.71875,6.21094 c 4.82073,17.41329 12.41991,34.57967 21.22266,47.9414 3.47939,5.28137 6.54545,9.60352 6.8125,9.60352 0.26707,0 1.89609,-1.41172 3.62109,-3.13672 1.725,-1.725 3.93965,-3.40371 4.91992,-3.73047 1.27581,-0.42526 0.44554,-2.47088 -2.91992,-7.19726 -7.69229,-10.80297 -16.87956,-31.90315 -21.01758,-48.26953 -0.78801,-3.11666 -1.83871,-5.66602 -2.33593,-5.66602 z m 53.49023,29.33203 c -3.03533,0 -21.81836,25.34876 -21.81836,29.44531 0,0.52865 1.8079,1.59104 4.01758,2.36133 2.20967,0.77029 4.37508,2.33008 4.81055,3.46485 0.43545,1.13477 1.01921,2.0625 1.29687,2.0625 0.27765,0 2.25857,-3.47389 4.40235,-7.72071 2.14378,-4.24681 6.61911,-10.99682 9.94531,-15 l 6.04687,-7.27929 -3.50781,-3.66602 c -1.92998,-2.01666 -4.26705,-3.66797 -5.19336,-3.66797 z m -9.63281,46.6875 -4.15625,4.15625 c -3.69623,3.69623 -4.80312,4.08404 -10.00195,3.49805 l -5.84375,-0.66016 -1.33594,6.16016 c -2.00707,9.25611 -2.89997,22.06047 -1.99805,28.64062 0.72572,5.2947 1.26656,6.01012 5.64258,7.44141 2.66264,0.87088 5.5688,1.88717 6.45703,2.25781 1.19321,0.49792 1.41504,-1.01991 0.84766,-5.81054 -0.70196,-5.92701 1.50955,-33.45488 2.79101,-34.73633 0.97945,-0.97945 25.27112,19.31845 30.7461,25.6914 6.51567,7.58437 15.63347,22.22805 18.08398,29.04297 1.18938,3.30775 2.43742,4.79495 3.63867,4.33399 1.00569,-0.38592 3.57527,-0.70313 5.70899,-0.70313 h 3.8789 l -3.33593,-8.86133 c -7.01269,-18.631 -18.27175,-33.01119 -40.16211,-51.29492 z m 24.50586,84.28125 c -0.62654,-0.079 -3.33824,1.76048 -6.29297,4.29297 -5.33223,4.57023 -12.42297,8.40554 -28.06445,15.17969 -4.49099,1.945 -6.33399,3.50822 -6.33399,5.375 0,2.50957 1.24017,6.85156 1.95703,6.85156 0.18604,0 6.80134,-3.02536 14.69922,-6.72266 7.89787,-3.69728 17.04659,-8.57158 20.33203,-10.83203 5.56699,-3.83018 5.9225,-4.42867 5.2168,-8.77734 -0.41648,-2.56645 -1.05306,-4.96321 -1.41602,-5.32617 -0.0227,-0.0227 -0.0559,-0.0358 -0.0977,-0.041 z m -202.89844,1.61328 c -1.037,0.0503 -2.97349,0.66089 -4.9707,1.61328 -4.00933,1.91192 -4.66836,2.78082 -3.83203,5.05664 1.10295,3.00132 0.70429,21.13341 -0.5586,25.41602 -1.60415,5.43986 4.50235,-1.83501 7.63477,-9.0957 2.83686,-6.57564 4.36331,-20.9027 2.43359,-22.84571 -0.1148,-0.11559 -0.36136,-0.16129 -0.70703,-0.14453 z m 218.60547,3.77149 -4.33594,8.82422 c -9.97512,20.29917 -26.34671,40.32547 -42.23633,51.66406 -10.27164,7.32968 -27.56859,15.42921 -39.82617,18.65039 -11.55175,3.03571 -50.00301,3.48137 -62.66601,0.72656 -38.26823,-8.32515 -72.2031,-25.73282 -108.86133,-55.84375 -5.60746,-4.60595 -10.56277,-8.375 -11.00977,-8.375 -0.447,0 -0.57886,3.15001 -0.29297,7 0.50128,6.75058 0.82021,7.24985 8.9336,14.00195 28.61656,23.81512 72.11055,45.59497 104.46875,52.3125 18.86658,3.9167 47.04525,4.4323 67.42773,1.23438 27.72285,-4.34959 53.4799,-19.76787 71.68164,-42.91016 8.47475,-10.77507 27.02543,-41.99515 25.41211,-42.76757 -0.2345,-0.11227 -2.28679,-1.17498 -4.56054,-2.36133 z m -452.75781,29.79687 c -1.61055,-0.0211 -2.45368,0.65109 -3.83594,2.27539 -4.05012,4.75936 -10.12122,18.25823 -13.00781,28.92578 -2.70609,10.00047 -5.94754,31.94309 -4.87696,33.01368 0.83836,0.83836 27.54788,6.68456 31.24024,6.83789 l 3.1582,0.13086 -0.79687,-12.33399 c -0.43801,-6.78332 -1.17988,-22.32701 -1.64844,-34.54297 l -0.85156,-22.21093 -5.3711,-1.36329 c -1.80042,-0.45699 -3.04343,-0.71977 -4.00976,-0.73242 z m 178.44336,6.89063 c -0.18271,0.001 -0.33744,0.0382 -0.45899,0.11328 -0.88249,0.54541 -2.82851,8.97565 -4.32422,18.73437 l -2.71875,17.74219 10.37696,11.06055 c 5.70677,6.08326 10.73807,11.11737 11.18164,11.18554 0.44358,0.0681 2.1135,-9.52444 3.71093,-21.3164 l 2.9043,-21.43945 -3.71094,-2.87305 c -2.04102,-1.57983 -6.43508,-5.39473 -9.76367,-8.47852 -3.20911,-2.97313 -5.91833,-4.73661 -7.19726,-4.72851 z m 29.20703,23.25 c -0.0174,0.001 -0.0295,0.004 -0.0371,0.0117 -0.24218,0.24217 -1.01455,2.99753 -1.7168,6.12304 -1.46271,6.51 -2.51498,5.43599 15.13086,15.44336 11.60793,6.58313 12.66934,6.95805 12.6582,4.46485 -0.004,-0.91667 -0.63652,-3.93525 -1.40625,-6.70704 -1.20163,-4.32708 -3.01317,-6.08071 -12.8125,-12.40234 -6.08099,-3.92291 -11.27743,-6.96723 -11.8164,-6.93359 z m -4.47461,20.89648 -0.72461,4.40625 c -0.39775,2.42364 -1.26915,7.67035 -1.9375,11.66016 -0.9232,5.51112 -0.78283,7.91493 0.58594,10.0039 2.40181,3.66567 26.00088,15.36863 46.98047,23.29688 28.93184,10.93342 64.91461,19.03127 94.94726,21.36914 13.44769,1.04683 37.26549,0.68186 46.33203,-0.71094 l 4.33399,-0.66601 v -9.83008 c 0,-5.40678 0.30591,-10.63078 0.67968,-11.60742 0.55057,-1.43865 -4.19495,-1.79545 -25,-1.87891 -33.79008,-0.13553 -54.34067,-3.66058 -97.13476,-16.66211 -16.19252,-4.91954 -49.71512,-18.56161 -60.67969,-24.69336 z m 28.27148,18.83594 c 2.07053,0.0332 4.25741,0.7651 6.32032,2.43555 2.05361,1.6629 3.0371,3.8888 3.0371,6.875 0,8.4553 -10.38085,12.45595 -16.21289,6.24804 -6.45676,-6.87292 -0.53926,-15.67712 6.85547,-15.55859 z m 40.05469,15.17383 c 8.9699,-0.047 13.60028,13.60805 3.98242,17.99023 -4.80971,2.19145 -6.88792,1.83671 -10.51758,-1.79297 -5.25165,-5.25163 -3.74049,-12.93478 3.05274,-15.51758 1.21415,-0.4616 2.38085,-0.67391 3.48242,-0.67968 z m 41.95898,11.4707 c 7.96348,0 12.46267,10.43579 6.89844,16 -3.40471,3.40473 -10.80746,3.52745 -13.79297,0.22852 -5.24806,-5.79906 -0.81714,-16.22852 6.89453,-16.22852 z m 47.13868,4 c 3.93295,0 9.09375,5.96223 9.09375,10.50781 0,4.27665 -5.12824,9.49219 -9.33399,9.49219 -1.26888,0 -3.88809,-1.24378 -5.82031,-2.76367 -2.54804,-2.00428 -3.51172,-3.99204 -3.51172,-7.23633 0,-4.89497 4.88593,-10 9.57227,-10 z m -156.4043,97.57422 c -0.35344,-0.0399 -0.64619,0.25962 -0.87305,0.91406 -0.30469,0.87898 2.05511,12.41734 8.40039,41.08789 0.35435,1.60112 1.84414,3.2924 3.31055,3.75781 2.04648,0.64952 2.47624,1.60093 1.85156,4.08985 -1.04045,4.14547 1.26371,4.22847 3.13867,0.11328 1.12211,-2.46276 0.86395,-4.37781 -1.21289,-9 -1.451,-3.22936 -4.68612,-13.32929 -7.18945,-22.44531 -3.2366,-11.78626 -5.89419,-18.3446 -7.42578,-18.51758 z m -6.72266,1.0918 c -2.64241,0 -4.81189,4.13748 -6.04882,11.5332 -0.68974,4.12392 1.25232,11.47449 8.48828,32.13281 3.32382,9.48935 3.46938,9.66797 8.00586,9.66797 3.76765,0 4.49766,-0.43166 3.95117,-2.33398 -4.91976,-17.12598 -6.4269,-23.19646 -8.93946,-36 -2.50466,-12.76339 -3.31901,-15 -5.45703,-15 z m 9.58985,60.99414 2.27929,4.5039 c 4.68256,9.24864 3.69618,29.01964 -2.40039,48.10352 -1.41953,4.4435 -2.58203,8.60048 -2.58203,9.23828 0,1.81648 12.84644,1.36299 14.32617,-0.50586 5.95344,-7.51899 10.36221,-38.00706 7.1875,-49.70898 -2.18166,-8.04162 -4.0487,-9.73583 -11.82812,-10.73438 z"
         transform="translate(-28.688171,-10.666666)" />
      <path
         id="path3297"
         style="display:inline;fill:#ff00ff;stroke-width:1.33333"
         d="m 808.19012,222.52213 c -1.33264,0.0124 -2.71008,0.5304 -3.92382,1.74415 -2.2145,2.21448 -1.99927,5.80933 0.49609,8.30468 2.80022,2.80023 4.99904,2.64058 7.91016,-0.57617 3.75929,-4.15397 -0.12913,-9.51306 -4.48243,-9.47266 z m 63.2461,85.47852 c -6.16266,0 -8.19976,6.3791 -3.16406,9.90625 2.50365,1.75363 3.34101,1.79092 5.66601,0.25 1.50068,-0.99459 2.92798,-2.81593 3.17188,-4.04687 0.61254,-3.09165 -2.19056,-6.10938 -5.67383,-6.10938 z M 640.00067,426.66667 c -1.5127,0 -3.0997,0.90825 -3.52539,2.01757 -0.76616,1.9966 1.58312,5.98243 3.52539,5.98243 0.55374,0 1.74719,-0.89177 2.65234,-1.98243 2.21547,-2.66944 0.73995,-6.01757 -2.65234,-6.01757 z m 39.44336,16.08007 c -0.87764,0.0346 -1.75048,0.35986 -2.42969,1.03907 -2.24099,2.24099 -0.0307,5.78333 3.3125,5.30859 1.96689,-0.27931 3.00586,-1.34323 3.00586,-3.07617 0,-2.02231 -1.95787,-3.34753 -3.88867,-3.27149 z m 43.03906,10.58594 c -2.86419,0 -4.50412,2.95068 -3.33398,6 0.95934,2.50001 4.03889,2.58703 6.04492,0.16992 2.06188,-2.48441 0.4427,-6.16992 -2.71094,-6.16992 z m 45.80469,4.70117 c -0.37143,0.004 -0.73704,0.068 -1.08398,0.20118 -1.93194,0.74134 -2.54952,4.64188 -0.98243,6.20898 1.6917,1.69172 5.86513,0.88107 6.70313,-1.30273 0.87038,-2.26814 -2.03668,-5.13869 -4.63672,-5.10743 z"
         transform="translate(-28.688171,-10.666666)" />
      <path
         style="fill:#00ffff;stroke-width:1.33333"
         d="m 869.03667,233.92439 c 3.44964,-2.41622 3.78179,-4.91862 0.96335,-7.25773 -1.55765,-1.29275 -2,-1.29972 -2,-0.0316 0,0.89556 -1.86345,3.36903 -4.14101,5.49659 -4.0745,3.80616 -4.08998,3.86828 -0.96334,3.86828 1.74772,0 4.51118,-0.93403 6.141,-2.0756 z"
         id="path3341"
         transform="translate(-28.688171,-10.666666)" />
      <path
         style="display:inline;fill:#ffff00;stroke-width:1.33333"
         d="m 860.00002,228.66666 c 1.32425,-1.59563 1.32425,-2.40437 0,-4 -3.33195,-4.01475 -8.08129,-0.94297 -6.18449,4 0.4221,1.1 1.61282,2 2.64605,2 1.03323,0 2.62552,-0.9 3.53844,-2 z"
         id="path3343"
         transform="translate(-28.688171,-10.666666)" />
    </g>
    <g
       inkscape:groupmode="layer"
       id="layer3"
       inkscape:label="King"
       style="display:inline"
       transform="translate(28.688171,10.666666)">
      <path
         id="path3257"
         style="fill:#6c5d53;stroke-width:1.33333"
         d="m 554.32098,598.66667 c -2.20374,0 2.34405,5.81077 7.14844,9.13281 4.01683,2.77747 5.53102,3.04246 13.35938,2.33984 7.58005,-0.68032 9.31248,-0.41137 12.2539,1.90235 1.88425,1.48215 3.80229,3.87863 4.26172,5.32617 0.91281,2.87603 4.65843,3.65309 4.65039,0.96484 -0.008,-2.79056 -5.00941,-10.06935 -8.0293,-11.68555 -1.86477,-0.99797 -6.13638,-1.21275 -12.40429,-0.62695 -9.2797,0.86728 -9.71299,0.77153 -14.74414,-3.23047 -2.85084,-2.26766 -5.77416,-4.12304 -6.4961,-4.12304 z m 38.48828,0.36328 c -0.18029,-0.005 -0.32423,0.041 -0.42382,0.14062 -0.52695,0.52696 -0.20868,1.97841 0.70703,3.22656 0.91572,1.24816 2.63686,4.52261 3.82422,7.2754 2.06358,4.78428 2.2404,4.88715 4.01367,2.35546 1.28192,-1.83018 1.46175,-3.37546 0.58398,-5.0039 -1.79994,-3.33925 -6.96218,-7.94991 -8.70508,-7.99414 z m -40.01171,8.81836 c -0.43928,-0.0218 -0.52819,0.26328 -0.30469,0.8457 0.46217,1.2044 0.83984,4.52456 0.83984,7.37695 0,4.7055 0.40227,5.30226 4.33399,6.4375 4.94762,1.42857 24.11594,1.66115 28.78125,0.34961 l 3.11328,-0.875 -2.87696,-3.6582 c -2.66366,-3.3863 -3.59423,-3.6582 -12.51953,-3.6582 -8.4654,0 -10.42875,-0.49736 -16.07812,-4.08008 -2.85241,-1.80894 -4.55694,-2.70202 -5.28906,-2.73828 z m 55.23828,14.80273 c -1.91836,0.0441 -1.25767,3.02716 2.04687,11.21484 0.90746,2.2484 0.58616,2.42691 -2.86328,1.58594 -2.13724,-0.52107 -6.11401,-2.40569 -8.83789,-4.1875 -4.61248,-3.01723 -5.43635,-3.13545 -12,-1.72265 -8.61191,1.85365 -11.71484,5.02481 -11.71484,11.97265 0,4.20728 0.58911,5.44204 3.04297,6.375 1.67403,0.63646 6.02535,3.43964 9.66796,6.22852 6.53996,5.00715 13.78274,8.37631 18.25196,8.49023 1.65293,0.0421 2.83732,-1.90214 4.22851,-6.9414 4.13218,-14.96791 4.09224,-31.00171 -0.082,-32.60352 -0.71661,-0.27499 -1.29753,-0.42229 -1.74023,-0.41211 z m -5.69336,1.86719 c -0.41907,-0.006 -0.90578,0.0908 -1.48828,0.26953 -4.33028,1.32886 -4.45468,1.89107 -1.03907,4.66016 4.90865,3.9795 7.00442,3.38925 5.30274,-1.49219 -0.86301,-2.47562 -1.51818,-3.42077 -2.77539,-3.4375 z m -50.00586,2.99609 c -2.23159,-0.0339 -2.9576,1.75096 -2.98242,5.89844 -0.0312,5.21446 2.84274,8.04166 10.0664,9.9043 3.61874,0.93309 6.64843,1.61885 6.73242,1.52343 0.084,-0.0955 0.55366,-3.32383 1.04493,-7.17382 0.87513,-6.8582 0.82541,-7 -2.52735,-7 -1.88213,0 -5.6104,-0.91449 -8.2832,-2.03125 -1.71195,-0.7153 -3.03642,-1.10567 -4.05078,-1.1211 z m 89.18945,24.15039 -1.49609,5.83399 c -0.82261,3.20879 -1.74724,6.58529 -2.05469,7.50195 -0.63661,1.89812 0.0472,1.99408 5.85742,0.83203 5.02197,-1.0044 5.2271,-3.08009 0.92969,-9.4043 z"
         transform="translate(-28.688171,-10.666666)" />
      <path
         style="fill:#008080;stroke-width:1.33333"
         d="m 582.63969,597.85521 5.36032,-2.14477 0.0228,-9.5219 c 0.0126,-5.23704 1.20234,-14.02189 2.64387,-19.52189 3.63708,-13.87687 3.54767,-14.66431 -1.66667,-14.67825 -2.38333,-0.007 -7.45322,-0.38639 -11.26644,-0.84447 -6.09842,-0.7326 -7.02537,-1.25291 -7.6994,-4.32174 -0.72221,-3.2882 -1.22453,-3.48887 -8.73356,-3.48887 h -7.96726 v 5.45793 c 0,3.00187 1.24144,9.00187 2.75876,13.33333 2.1814,6.22719 2.66973,10.37291 2.33333,19.80891 l -0.42543,11.93351 4.53051,3.06649 c 5.38771,3.64669 12.48569,3.97204 20.10917,0.92172 z"
         id="path3263"
         transform="translate(-28.688171,-10.666666)" />
      <path
         id="path3325"
         style="display:inline;fill:#fff6d5;stroke-width:1.33333"
         d="m 480.31903,68.00065 c -9.71069,0 -10.1058,0.131023 -16.53711,5.515625 -11.54819,9.668693 -15.74644,22.209162 -10.86328,32.449215 1.76979,3.71128 2.81055,4.54339 4.86719,3.89063 2.07016,-0.65704 2.43456,-0.35586 1.74414,1.44336 -0.89256,2.32596 -0.10115,4.71564 1.54883,4.67969 0.50672,-0.0111 3.1769,-0.80558 5.93359,-1.76563 2.75668,-0.96005 4.71489,-2.04293 4.35156,-2.40625 -0.36332,-0.36333 0.23035,-5.32082 1.32031,-11.01758 1.08996,-5.696743 1.98243,-10.889069 1.98243,-11.53906 0,-1.95717 -7.71476,-5.321191 -12.62696,-5.505859 -2.52987,-0.09511 -4.28868,-0.677349 -3.9082,-1.292969 1.11087,-1.797424 8.88063,-1.29306 15.65625,1.015625 5.7429,1.956807 6.70906,1.956807 11.59961,0 5.62942,-2.252449 15.94531,-2.911019 15.94531,-1.017578 0,0.614512 -2.1806,1.200516 -4.84765,1.300781 -10.5903,0.398131 -12.79291,4.81172 -9.56641,19.18359 0.87242,3.8861 1.47449,7.69316 1.33789,8.45899 -0.27327,1.532 10.35016,4.80146 12.0957,3.72265 0.59914,-0.37027 0.70523,-1.88202 0.23633,-3.35937 -0.70877,-2.23315 -0.39719,-2.54204 1.83985,-1.83203 2.02886,0.64394 2.92346,0.11702 3.64062,-2.14258 0.58413,-1.8404 0.36565,-3.19322 -0.56641,-3.50391 -0.97498,-0.325 -0.56161,-1.72035 1.15625,-3.90429 1.47075,-1.869763 2.67383,-4.828679 2.67383,-6.574222 0,-5.064824 -7.93495,-17.736084 -13.74023,-21.941406 -4.74152,-3.434727 -6.41707,-3.857422 -15.27344,-3.857422 z m -0.86133,20 c -1.74634,0 -3.4205,8.956408 -3.44531,18.42188 -0.0107,4.03952 0.3047,4.38541 3.6543,4 3.51195,-0.40409 3.65083,-0.70448 3.30273,-7.08985 C 482.384,92.594217 481.33134,88.00065 479.4577,88.00065 Z m -16.22851,2.666016 c 3.99654,0 7.4375,1.952983 7.4375,4.220703 0,0.560865 -1.35002,1.713602 -3,2.5625 -2.4758,1.273758 -2.70943,1.234411 -1.33399,-0.220703 0.91667,-0.969763 1.66797,-2.243413 1.66797,-2.830078 0,-1.897796 -3.69092,-1.129018 -4.48242,0.933594 -0.91872,2.394155 -3.71893,2.599413 -5.88672,0.43164 -2.38904,-2.389043 0.58537,-5.097656 5.59766,-5.097656 z m 30.50781,0.136719 c 1.88636,-0.04576 3.92722,0.474997 5.54687,1.660156 2.22586,1.628713 2.34993,2.234354 0.83594,4.058594 -0.97879,1.179354 -2.37995,2.144531 -3.11328,2.144531 -0.78116,0 -0.68622,-0.778666 0.22852,-1.880859 0.92188,-1.110797 1.05073,-2.197298 0.31445,-2.652344 -0.68585,-0.423878 -1.9883,0.122923 -2.89453,1.214844 -0.90621,1.091924 -2.81626,1.984375 -4.24414,1.984375 -1.92964,0 -2.48661,-0.77018 -2.16992,-3 0.3104,-2.185523 2.7391,-3.462419 5.49609,-3.529297 z m -13.39063,26.140625 c -0.39501,0.0124 -0.81307,0.22443 -1.29101,0.62109 -2.55311,2.1189 -2.10483,3.07956 1.5332,3.28907 2.8382,0.16346 3.05742,-0.12521 1.7207,-2.26563 -0.70876,-1.13492 -1.30453,-1.66526 -1.96289,-1.64453 z m -15.65625,6.73242 c -2.74925,-0.0118 -4.68952,0.21814 -4.68945,0.61133 3.4e-4,1.67051 5.06249,3.73207 7.17383,2.92187 1.1191,-0.42943 3.3967,0.17249 5.06055,1.3379 3.75481,2.62997 10.2921,2.73495 13.8789,0.22265 1.48916,-1.04305 4.72582,-2.0937 7.19336,-2.33398 7.54582,-0.73482 6.06249,-3.14703 -1.64062,-2.66797 -8.86518,0.55133 -14.37886,0.5528 -24,0.004 -1.05419,-0.0602 -2.06015,-0.0918 -2.97657,-0.0957 z m 161.45704,107.90039 c -1.47212,0.0538 -2.95266,0.82176 -5.76368,2.49805 -5.26348,3.13876 -5.40274,3.40132 -4.36328,8.25 0.59046,2.75435 1.49124,8.80117 2.00196,13.4375 0.5107,4.63634 1.6146,8.68834 2.45312,9.00391 0.8385,0.31558 7.22475,1.39793 14.19141,2.40429 6.96666,1.00635 12.77848,1.90437 12.91406,1.9961 0.1356,0.0917 1.78495,-0.41763 3.66601,-1.13282 2.14076,-0.81392 3.41993,-2.32698 3.41993,-4.04297 0,-1.50783 0.95088,-3.10668 2.11328,-3.55273 1.61502,-0.61973 1.9107,-1.89154 1.2539,-5.39258 -0.52906,-2.82011 -0.24456,-5.32159 0.73829,-6.50586 1.26349,-1.52241 1.12115,-2.44604 -0.67579,-4.43164 -1.48846,-1.64474 -1.78048,-2.81335 -0.84961,-3.38867 0.7811,-0.48275 1.41993,-2.01415 1.41993,-3.4043 0,-3.20471 -6.69633,-4.62623 -16.85157,-3.57812 -4.71563,0.48671 -8.78747,0.10832 -11.62695,-1.07813 -1.75726,-0.73423 -2.89604,-1.12389 -4.04101,-1.08203 z m -32.13868,67.1211 c -5.92533,0.1247 -12.31969,2.35517 -16.92578,6.4707 -3.59694,3.21389 -3.91403,4.03361 -2.54492,6.5918 1.19332,2.22973 1.19684,4.1518 0.01,8.11328 -1.32638,4.42701 -1.13863,6.56436 1.28125,14.53125 1.56056,5.13783 2.83789,11.19926 2.83789,13.46875 0,4.78413 1.57862,5.21434 5.33984,1.45312 2.41345,-2.41346 2.59049,-3.77708 1.80469,-14 -0.8914,-11.59685 -0.13941,-14.11812 2.29883,-7.70508 0.75728,1.99182 1.79288,3.02209 2.30078,2.28907 1.48537,-2.14377 8.2478,-1.52925 8.3164,0.75586 0.0601,2.00454 12.92304,14.12773 13.92578,13.125 0.29333,-0.29334 0.003,-2.91736 -0.64453,-5.83008 -1.07411,-4.83189 -1.00557,-5.06396 0.7793,-2.6543 1.07595,1.45259 2.64788,5.05259 3.49219,8 1.93014,6.73796 1.47824,6.30434 5.51562,5.29102 4.80257,-1.20536 5.48695,-4.82185 2.28321,-12.06446 -3.27943,-7.4137 -3.47734,-8.83823 -0.66993,-4.83007 2.69356,3.84558 4.10491,3.74386 5.13672,-0.36719 1.33066,-5.30173 -4.86417,-16.02554 -12.17187,-21.07031 -3.39875,-2.34628 -8.10285,-5.91694 -10.45313,-7.9336 -2.97871,-2.55591 -7.30351,-3.73176 -11.91211,-3.63476 z m 25.40039,20.84179 c 0.78015,-0.0257 0.75789,0.76835 0.13086,2.40235 -0.45084,1.17487 -2.38044,2.05478 -4.49804,2.05078 l -3.70899,-0.008 4,-2.47657 c 2.07432,-1.28479 3.38781,-1.9461 4.07617,-1.96875 z m -9.39062,5.375 c 0.49465,6e-4 0.64844,0.37215 0.64844,1.09961 0,2.37254 -4.30296,4.77878 -6.31836,3.53321 -0.9472,-0.5854 -0.0533,-1.76728 2.40429,-3.17774 1.7062,-0.97922 2.70502,-1.45576 3.26563,-1.45508 z"
         transform="translate(-28.688171,-10.666666)" />
      <path
         id="path3431"
         style="fill:#deaa87;stroke-width:1.33333"
         d="m 513.49091,105.48307 c -0.89487,0.0689 -0.51387,1.90062 1.30468,5.51758 4.32422,8.60051 6.33676,10.33203 12,10.33203 2.7764,0 5.41787,-0.5987 5.8711,-1.33203 0.45839,-0.74168 -0.5414,-1.33398 -2.25196,-1.33398 -1.98406,0 -5.24872,-2.3647 -9.20312,-6.66602 -4.05419,-4.40985 -6.70652,-6.59565 -7.7207,-6.51758 z m -67.82032,0.0996 c -1.68716,-0.0526 -5.402,3.26334 -8.6582,7.89063 -2.6307,3.73839 -4.61253,5.19336 -7.07813,5.19336 -2.05854,0 -3.07821,0.56035 -2.55664,1.40429 0.47726,0.77221 3.36276,1.22221 6.41211,1 5.19557,-0.37861 5.78346,-0.85042 9.34375,-7.49414 2.08958,-3.89929 3.49708,-7.39158 3.12891,-7.75976 -0.15102,-0.15102 -0.35077,-0.22686 -0.5918,-0.23438 z m 63.21875,9.19141 c -0.25343,-0.009 -0.48647,0.022 -0.69336,0.0996 -0.6723,0.25228 0.56766,3.60899 2.75391,7.45898 3.8205,6.72787 4.18903,6.9957 9.51172,6.89453 5.16084,-0.0981 5.29769,-0.19216 2.00586,-1.39843 -1.97483,-0.72366 -4.27024,-3.07515 -5.20508,-5.33204 -1.54547,-3.7311 -5.92318,-7.63889 -8.37305,-7.72265 z m -57.75586,0.0117 c -2.45135,0.12793 -7.19115,4.12505 -9.17578,7.96289 -1.15365,2.23093 -3.41574,4.58732 -5.02734,5.23633 -2.49244,1.00374 -2.18117,1.19178 2.08203,1.26367 4.61747,0.0779 5.36652,-0.46695 9.52344,-6.91602 2.48161,-3.84999 3.95764,-7.2067 3.27929,-7.45898 -0.19904,-0.074 -0.42805,-0.10113 -0.68164,-0.0879 z m 54.04297,10.45507 c -1.20324,-10e-4 -2.50461,2.60535 -1.84765,5.23829 1.89263,7.58533 9.78477,10.88319 14.57617,6.09179 2.8995,-2.89949 2.61979,-3.58021 -0.65039,-1.58203 -2.42483,1.48164 -3.18675,1.19057 -6.50196,-2.49023 -2.06497,-2.29269 -4.0141,-4.94854 -4.33203,-5.90235 -0.31794,-0.95382 -0.7733,-1.35488 -1.24414,-1.35547 z m -50.47461,0.0918 c -0.71451,0 -2.22122,1.78268 -3.34765,3.96094 -2.44922,4.73628 -6.26076,7.03471 -9.5918,5.78516 -2.13781,-0.80194 -2.20954,-0.64131 -0.59961,1.33789 1.86986,2.29871 7.66731,2.99147 10.30469,1.23046 3.62104,-2.41784 6.22041,-12.31445 3.23437,-12.31445 z m 11.58789,5.19336 -3.47851,0.4043 c -2.52801,0.29342 -3.41435,1.11589 -3.2461,3.01367 0.37808,4.26448 -2.06422,7.38867 -5.77539,7.38867 -2.91519,0 -3.19174,0.30987 -1.78906,2 1.85149,2.23092 6.32976,2.59422 9.24414,0.75 1.05089,-0.66501 2.61628,-3.98699 3.47852,-7.38281 z m 28.67774,0.24414 c -1.47572,-0.0365 -1.62848,0.57216 -1.0918,2.45508 0.43511,1.52664 1.16468,4.12539 1.62109,5.77539 0.45642,1.65 1.45431,3.78026 2.21875,4.73438 1.70043,2.12228 9.20279,1.56916 9.95899,-0.73438 0.31276,-0.95271 -0.57189,-1.66797 -2.06641,-1.66797 -3.21758,0 -5.2078,-2.28039 -5.81445,-6.66601 -0.31932,-2.30837 -1.42027,-3.46904 -3.58398,-3.77539 -0.48913,-0.0693 -0.90164,-0.11267 -1.24219,-0.1211 z m -6.73438,1.99219 c -0.49184,0.0276 -1.20263,0.34524 -2.23242,0.81445 -2.69709,1.22888 -3.33398,2.4759 -3.33398,6.54102 0,5.86718 2.77318,9.21484 7.63476,9.21484 3.25274,0 3.32195,-0.13507 1.23828,-2.4375 -1.38735,-1.533 -2.20703,-4.74083 -2.20703,-8.63867 0,-4.21382 -0.0176,-5.5548 -1.09961,-5.49414 z m -17.04297,0.004 c -1.47961,-0.0599 -1.85742,1.97353 -1.85742,7.18945 0,3.39777 -0.71961,6.89734 -1.59961,7.77734 -1.24444,1.24444 -0.85821,1.59961 1.73438,1.59961 1.83333,0 4.05164,-0.71961 4.93164,-1.59961 2.63434,-2.63433 2.00667,-12.17109 -0.92188,-14 -0.95989,-0.59946 -1.70813,-0.94336 -2.28711,-0.96679 z"
         transform="translate(-28.688171,-10.666666)" />
      <path
         id="path3447"
         style="fill:#c87137;stroke-width:1.33333"
         d="m 455.47723,69.332682 c -3.33727,0 -8.08903,5.744572 -10.1582,12.279296 -3.09163,9.763779 -7.99459,20.225782 -10.95312,23.375002 -3.83919,4.08662 -0.87082,3.8282 4.10351,-0.35742 2.20358,-1.85419 5.03262,-6.205497 6.28711,-9.667972 3.8188,-10.54021 8.58392,-20.758567 10.8457,-23.257813 1.97494,-2.182294 1.96595,-2.371093 -0.125,-2.371093 z m 49.77735,0 c -2.567,0 -2.53641,0.217462 0.68554,4.958984 1.85284,2.726706 4.9238,9.631416 6.82618,15.34375 2.18391,6.557729 4.9302,11.855984 7.44921,14.375004 5.39631,5.39629 7.08285,5.03934 3.20313,-0.67774 -1.74199,-2.56696 -5.06065,-9.917613 -7.375,-16.333983 -5.08419,-14.095552 -7.26457,-17.666015 -10.78906,-17.666015 z m 10.42578,1.990234 c -0.78071,0.02139 -0.79307,0.548441 -0.27149,1.773437 2.54269,5.971838 4.50231,11.827171 4.76563,14.236329 0.1603,1.466665 0.5257,0.01462 0.8125,-3.226563 0.2868,-3.241175 0.18814,-7.218649 -0.21875,-8.839844 -0.4069,-1.621193 -1.99277,-3.274993 -3.52539,-3.675781 -0.69391,-0.181461 -1.20763,-0.277302 -1.5625,-0.267578 z m -70.55469,0.519531 -2.8418,0.41211 c -3.17911,0.46146 -4.62368,4.201052 -4.79687,12.412109 -0.0823,3.90243 0.23395,4.797395 1.17969,3.333984 0.71088,-1.099999 1.30127,-2.924459 1.3125,-4.052734 0.0107,-1.128275 1.17416,-4.31285 2.58398,-7.078125 z"
         transform="translate(-28.688171,-10.666666)" />
      <path
         id="path3391"
         style="fill:#999999;stroke-width:1.33333"
         d="m 661.68036,23.354166 c -1.07318,-0.07494 -2.49577,2.327536 -4.4375,6.857422 -4.07844,9.514595 -6.27258,19.730839 -9.11524,42.455078 -2.11383,16.897885 -12.26855,115.066024 -13.79296,133.333984 -0.28377,3.40072 0.17521,4.05785 3.06445,4.39453 l 3.39844,0.39649 3,-25.72852 c 1.65003,-14.15113 4.00032,-34.42918 5.22461,-45.0625 1.22429,-10.63333 2.42362,-18.36755 2.66406,-17.1875 0.37915,1.86086 -2.16799,31.93876 -6.30274,74.44336 -0.67357,6.92436 -0.92465,13.07373 -0.55859,13.66602 0.66587,1.07741 7.17578,1.56123 7.17578,0.5332 0,-0.56601 9.68032,-105.88711 12.20508,-132.789064 0.79148,-8.433326 1.11635,-23.132692 0.72266,-32.666016 -0.6407,-15.514167 -1.45941,-22.521581 -3.24805,-22.646484 z m -9.08203,88.365234 c 0.0975,-0.0119 0.20996,0.19273 0.32617,0.63867 0.33806,1.29729 0.31455,3.09729 -0.0508,4 -0.36514,0.90271 -0.64045,-0.15742 -0.61328,-2.35742 0.0178,-1.44375 0.15177,-2.25861 0.33789,-2.28125 z"
         transform="translate(-28.688171,-10.666666)" />
      <path
         id="path3385"
         style="fill:#c8b7b7;stroke-width:1.33333"
         d="m 622.90692,217.36003 c -3.83344,-0.0229 -4.36902,0.37433 -4,2.97265 0.4076,2.86997 1.35105,3.08668 21.75977,5 21.05356,1.97377 21.34271,1.96567 22.11523,-0.66601 0.43054,-1.46667 0.64932,-2.84899 0.48438,-3.07227 -0.4236,-0.57349 -35.01143,-4.20234 -40.35938,-4.23437 z m 10.42578,52.33398 c -0.89471,0 -1.78812,0.50597 -3.33203,1.51758 -2.23098,1.4618 -3.33398,3.4086 -3.33398,5.88672 0,4.63141 2.19291,6.90234 6.66601,6.90234 1.90667,0 4.18641,-0.72156 5.06641,-1.60156 2.82554,-2.82554 1.89947,-8.80779 -1.73242,-11.1875 -1.54391,-1.01161 -2.43928,-1.51758 -3.33399,-1.51758 z"
         transform="translate(-28.688171,-10.666666)" />
      <path
         id="path3279"
         style="display:inline;fill:#0000ff;stroke-width:1.33333"
         d="m 495.46747,152.15104 c -0.37097,0.0133 -0.90332,0.14601 -1.61914,0.43359 -1.3834,0.55579 -4.76563,1.3317 -7.51563,1.72266 -2.74999,0.39097 -5,1.18297 -5,1.75977 0,0.5768 -0.38959,2.06594 -0.86719,3.31054 -0.71926,1.87438 -0.31993,2.10088 2.33204,1.31641 1.76092,-0.52089 5.27013,-1.94057 7.79687,-3.1543 4.15707,-1.99687 6.87628,-5.46028 4.87305,-5.38867 z m -48.43555,5.45899 c -3.09861,0.30291 -8.72888,4.35176 -11.75195,9.14062 -5.39297,8.54301 -8.96233,24.7578 -8.41016,38.20313 l 0.4668,11.33398 9.43164,8.85547 c 16.4347,15.43118 50.5142,37.74958 70.8457,46.39453 7.55586,3.21276 8.27178,3.26563 33.71875,2.55664 14.29999,-0.39842 35.60067,-1.36138 47.33399,-2.14062 11.73331,-0.77926 22.16383,-1.70082 23.17968,-2.04688 3.70229,-1.26118 -0.69515,-24.92931 -6.22656,-33.51172 -0.80406,-1.24757 -5.782,-1.18329 -22.32812,0.29297 -23.78836,2.12242 -49.49448,2.48693 -56.72852,0.80469 -3.56476,-0.82896 -7.7754,-4.22767 -16.66601,-13.45313 -6.54316,-6.78956 -18.04781,-16.85815 -25.56446,-22.375 -7.51666,-5.51685 -13.66601,-10.22163 -13.66601,-10.45508 0,-0.23347 2.54935,0.47183 5.66601,1.56836 11.13771,3.91856 24.17354,12.95698 35.98828,24.95313 6.47499,6.57439 12.17458,11.55199 12.66602,11.06055 1.98603,-1.98602 1.91461,-18.01066 -0.11133,-24.92188 -1.14564,-3.90811 -1.85338,-7.33609 -1.57226,-7.61719 0.28111,-0.28111 1.80372,2.02395 3.38476,5.12305 1.7528,3.43577 3.4414,10.47433 4.32617,18.03516 1.26098,10.77564 1.81388,12.49678 4.21875,13.14257 3.63554,0.97627 13.44755,0.98997 14.41797,0.0195 2.11112,-2.11111 -16.04234,-42.97013 -19.33203,-43.51172 -0.90848,-0.14957 -10.35301,-0.30023 -20.98633,-0.33399 -17.44385,-0.0555 -20.01981,-0.37201 -26.37109,-3.24218 -4.18296,-1.8903 -9.40606,-5.81206 -12.8711,-9.66602 -3.61571,-4.02155 -6.94512,-6.48633 -8.76171,-6.48633 -2.97418,0 -11.01621,-7.01232 -12.23243,-10.66601 -0.28047,-0.8426 -1.03158,-1.15762 -2.06445,-1.05664 z m 45.51758,116.97265 c -0.16043,0.009 -0.25746,0.0471 -0.28516,0.11914 -0.22155,0.5762 1.04997,4.55449 2.82617,8.83985 1.7762,4.28535 4.8568,12.74102 6.84571,18.79101 1.98889,6.04999 4.01609,10.99824 4.50586,10.99414 0.48977,-0.004 3.13657,-0.6324 5.88086,-1.39453 3.62412,-1.00648 5.21851,-2.29372 5.82422,-4.70703 1.15224,-4.59094 -0.2702,-10.71705 -3.56055,-15.33789 -1.52258,-2.13828 -2.13023,-3.88672 -1.35156,-3.88672 2.45321,0 9.43933,10.91119 10.25586,16.01758 0.69295,4.33349 1.15771,4.82054 4.06054,4.26562 4.69484,-0.89747 7.49901,-5.87151 6.89258,-12.23047 -0.73075,-7.66258 1.47576,-4.46411 2.41992,3.50782 l 0.79102,6.68945 5.22656,-0.95703 c 2.87384,-0.52552 5.53046,-1.26093 5.9043,-1.63477 0.37384,-0.37384 -0.83252,-2.90694 -2.67969,-5.6289 -1.84719,-2.72197 -4.06762,-6.91227 -4.93555,-9.3125 l -1.57812,-4.36524 -13.42774,-0.92383 c -11.04219,-0.76051 -15.20955,-1.71108 -23.46289,-5.3496 -4.8297,-2.1292 -9.02936,-3.55799 -10.15234,-3.4961 z m 94.33398,6.75 c -10.46139,0 -17.86083,2.081 -22.41406,6.30078 -4.18872,3.88198 -5.63111,3.00506 -2.61914,-1.59179 l 2.21094,-3.375 -5.03125,0.1582 c -2.76691,0.0868 -6.69953,0.53677 -8.74024,1 l -3.71093,0.8418 4.37695,6.86523 c 2.40737,3.7758 6.44751,10.03932 8.97851,13.91797 l 4.60352,7.05078 1.4375,-3.51953 c 0.79123,-1.93573 2.86865,-5.04111 4.61719,-6.90234 4.41339,-4.69785 15.9227,-8.6985 26.14062,-9.08594 4.72669,-0.17923 8.59617,-0.60176 8.59766,-0.9375 0.001,-0.33575 -2.22006,-2.8851 -4.93555,-5.66602 -4.70343,-4.81675 -5.34308,-5.05664 -13.51172,-5.05664 z m -20.66992,51.79492 c -1.89617,0.0343 -5.97649,0.68735 -10.52344,1.73047 -14.52657,3.33256 -14.92427,3.49417 -13.38086,5.49024 0.7021,0.90798 1.63435,2.66025 2.07227,3.89257 0.62301,1.75319 -0.25998,1.52383 -4.0625,-1.05664 -5.20153,-3.52986 -10.68263,-3.8028 -9.78711,-0.48632 0.29232,1.08258 1.35809,4.96811 2.36914,8.63476 1.84298,6.6837 1.29975,15.97405 -1.01758,17.40625 -0.67876,0.4195 -1.21679,-2.54641 -1.21679,-6.70312 0,-12.97241 -5.03778,-20.66147 -11.58203,-17.67969 -1.69696,0.77318 -3.08399,1.86625 -3.08399,2.42969 0,0.56344 2.37797,10.81632 5.28516,22.78515 9.68067,39.85529 15.53244,77.09366 17.14258,109.09571 l 0.90429,18 8,1.70117 c 7.73384,1.64532 22.63752,1.4406 24.41406,-0.33594 0.4778,-0.4778 1.17962,-8.18072 1.56055,-17.11719 l 0.69336,-16.24804 1,12.53906 c 0.55,6.89599 1,16.73091 1,21.85742 v 9.32227 l 9.66602,-0.73438 c 5.31666,-0.40329 11.3059,-1.48061 13.30859,-2.39453 2.73589,-1.2485 3.47005,-2.35703 2.95508,-4.45898 -1.00006,-4.08186 -4.44886,-34.72303 -3.96289,-35.20899 0.585,-0.58502 6.84733,19.93236 9.55078,31.29102 2.0034,8.41736 2.67941,9.62384 5.71094,10.20312 4.4018,0.84112 15.81405,-0.92539 17.61523,-2.72656 2.79338,-2.79339 -9.19929,-38.68809 -19.94336,-59.68945 -4.70817,-9.20304 -8.95847,-14.9517 -18.23047,-24.66602 -19.83231,-20.77841 -26.30373,-28.26991 -33.7207,-39.02539 -6.17897,-8.96023 -11.89472,-19.64258 -10.50977,-19.64258 0.26192,0 4.43278,4.65065 9.26758,10.33399 4.83481,5.68332 10.94007,12.73268 13.56836,15.66601 l 4.7793,5.33399 -0.44922,-16 c -0.34306,-12.23109 -1.30089,-19.10628 -4.06641,-29.18946 -1.98973,-7.25462 -3.88997,-13.63163 -4.22265,-14.16992 -0.0832,-0.13457 -0.47146,-0.19112 -1.10352,-0.17969 z m 6.10547,170.78907 -5.82617,0.98828 c -7.20828,1.22132 -9.23546,1.22603 -18.70703,0.043 l -7.54688,-0.94336 -0.85156,11.66406 c -0.46848,6.41534 -1.12263,12.96842 -1.45313,14.5625 -0.53297,2.57061 0.19003,3.04351 6.39844,4.17578 8.68256,1.58351 15.44281,1.8384 20.72852,0.78125 4.445,-0.889 4.34035,-0.52299 6.40039,-22.22852 z m 31.06641,6.53711 -4.02539,0.78515 c -2.21437,0.43143 -8.07735,1.16026 -13.02735,1.61914 l -9,0.83399 v 13.70898 c 0,9.72022 0.48631,13.906 1.66797,14.38281 3.20896,1.29484 12.41198,0.81939 21.52539,-1.11132 5.05612,-1.07117 9.36569,-2.1196 9.57617,-2.33008 0.21048,-0.21048 -1.21575,-6.57072 -3.16797,-14.13477 z m 27.4375,2.30859 c -1.55305,0.0524 -6.35022,0.20107 -10.66211,0.33203 l -7.83985,0.23828 1.84375,9.66797 c 2.89022,15.14079 3.79825,17.55208 7.26172,19.3125 3.58636,1.82286 19.36862,2.30317 20.40821,0.62109 0.36209,-0.58589 -1.33125,-7.63525 -3.76368,-15.66601 -3.84374,-12.6903 -4.79389,-14.58863 -7.24804,-14.50586 z"
         transform="translate(-28.688171,-10.666666)" />
      <path
         id="path3349"
         style="fill:#ffcc00;stroke-width:1.33333"
         d="m 552.66669,310.38151 c -5.25068,0.17861 -43.1498,7.79359 -44.51172,9.05664 -0.50115,0.46475 4.17117,17.89453 4.79687,17.89453 0.17513,0 11.58227,-2.75434 25.34961,-6.12109 13.76735,-3.36676 25.26581,-6.35153 25.55274,-6.63281 0.28693,-0.28128 -1.81242,-3.32924 -4.66602,-6.77344 -2.8536,-3.44421 -5.52145,-6.75366 -5.92773,-7.35547 -0.0393,-0.0583 -0.24371,-0.0803 -0.59375,-0.0684 z m -4.60938,3.875 c 1.2923,0.0386 2.6316,0.44023 3.85742,1.29883 3.30124,2.31228 3.43053,3.57533 0.65625,6.34961 -3.10579,3.10579 -9.52663,2.72125 -10.59179,-0.63477 -1.25897,-3.96665 2.20122,-7.12942 6.07812,-7.01367 z m -24.90625,5.74414 c 2.15414,0 6.18164,3.47389 6.18164,5.33203 0,3.78207 -9.65659,7.2321 -12.44336,4.44531 -0.4889,-0.48888 -0.88867,-2.26781 -0.88867,-3.95312 0,-3.06218 3.39123,-5.82422 7.15039,-5.82422 z"
         transform="translate(-28.688171,-10.666666)" />
      <path
         id="path3357"
         style="fill:#ff00ff;stroke-width:1.33333"
         d="m 547.87176,317.64909 c -0.41433,0.0116 -0.83806,0.12513 -1.22656,0.36523 -1.49114,0.92157 -0.51183,3.31836 1.35547,3.31836 0.64678,0 1.52145,-0.55757 1.94336,-1.24023 0.77036,-1.24645 -0.59251,-2.48497 -2.07227,-2.44336 z m -25.87109,6.35156 c -1.1,0 -2,0.9 -2,2 0,1.1 0.9,2 2,2 1.1,0 2,-0.9 2,-2 0,-1.1 -0.9,-2 -2,-2 z"
         transform="translate(-28.688171,-10.666666)" />
      <path
         id="path3269"
         style="display:inline;fill:#ff0000;stroke-width:1.33333"
         d="m 441.59051,145.84245 c -0.90895,0.009 -1.90722,0.27086 -3.24804,0.73828 -19.44606,6.77894 -37.00977,29.60352 -37.00977,48.09765 0,7.48118 0.68602,9.32283 9.38086,25.22266 6.94634,12.70242 9.59361,18.97208 10.20899,24.16797 0.61679,5.20781 0.42645,6.76477 -0.73829,6.04492 -1.80328,-1.11448 -7.22484,-11.43035 -11.62304,-22.11328 -1.85104,-4.49604 -3.29149,-6.56018 -3.72071,-5.33398 -0.38505,1.09999 -3.36535,9.49935 -6.62304,18.66601 -3.25772,9.16665 -6.35692,18.70556 -6.88672,21.19727 l -0.96289,4.53125 3.8164,-2.71094 c 3.52313,-2.5032 13.11757,-7.01758 14.91602,-7.01758 0.42594,0 -1.37708,2.25 -4.00586,5 -6.12605,6.4085 -7.76172,9.69647 -7.76172,15.59961 0,3.93623 0.74564,5.22671 4.2461,7.35547 4.76771,2.89942 16.6047,4.80085 21.0664,3.38477 1.6843,-0.53457 3.9833,-3.27472 5.39844,-6.43555 2.44596,-5.46324 2.28353,-9.01249 -0.20898,-4.5586 -1.41971,2.53686 -5.16797,3.18711 -5.16797,0.89649 0,-0.78431 1.90051,-5.9903 4.22265,-11.56836 2.91344,-6.9984 4.20389,-12.23977 4.16602,-16.9082 l -0.0547,-6.76563 1.91602,6 c 1.05316,3.3 2.02781,10.80132 2.16601,16.66797 0.22747,9.65559 -0.21942,11.75064 -4.69922,22.11133 -5.96845,13.8036 -7.13286,20.1525 -5.09179,27.73242 1.87343,6.95742 10.00937,16.17366 19.87304,22.51172 5.68311,3.65177 7.4014,4.22703 8.3125,2.78906 2.63923,-4.16546 1.22152,-7.54058 -4.60156,-10.95312 -12.11097,-7.09751 -17.92117,-20.98351 -11.33594,-27.09375 1.71967,-1.59564 4.89576,-3.34024 7.05664,-3.87696 l 3.92774,-0.97461 -2.92774,3.72266 c -4.93071,6.26837 -2.89596,18.47941 3.66407,21.99023 3.62757,1.94141 3.75853,1.86165 4.77929,-2.95898 1.16066,-5.48122 6.00797,-17 7.1543,-17 0.47613,0 -0.61334,13.48278 -2.42187,29.96289 -1.80853,16.48011 -2.86563,30.38829 -2.34766,30.90625 0.96435,0.96434 5.47978,-1.12381 14.9082,-6.89453 10.91351,-6.67967 9.88428,-3.08942 -1.57812,5.50195 -12.07657,9.05178 -19.08789,15.60065 -19.08789,17.83203 0,0.69704 2.10657,0.0252 4.68164,-1.49414 6.57684,-3.88043 10.35188,-2.57939 13.80078,4.75782 1.53358,3.26254 4.02131,7.07934 5.52734,8.48242 2.39012,2.22673 2.48578,2.7596 0.75586,4.19531 -2.63687,2.1884 -3.69403,1.3523 -7.41015,-5.87305 -5.27569,-10.25761 -12.92699,-9.68296 -20.02149,1.50391 -4.67495,7.37163 -6.32285,14.32168 -4.04492,17.06641 0.87567,1.05511 5.94968,2.88739 11.27539,4.07226 11.95884,2.66058 17.47385,5.90468 20.37305,11.98438 1.22985,2.57901 2.65637,4.23313 3.16992,3.67578 0.51354,-0.55733 1.97987,-7.01433 3.25976,-14.34766 3.40074,-19.48498 4.15324,-56.73407 1.45899,-72.23828 -1.16965,-6.73085 -3.09539,-15.13022 -4.2793,-18.66602 -2.86813,-8.56578 -12.84259,-28.77669 -25.87305,-52.42773 -5.85839,-10.63332 -11.66533,-22.03399 -12.90429,-25.33398 -1.3684,-3.64473 -4.98834,-8.61631 -9.22266,-12.66602 -4.69825,-4.49342 -7.44242,-8.40525 -8.41797,-12 -2.03183,-7.487 -1.77468,-30.31178 0.46094,-40.85937 3.4416,-16.23735 9.11903,-23.87227 20.6543,-27.77735 l 6.66992,-2.25781 -4.03906,-2.98828 c -2.17151,-1.60546 -3.43626,-2.29079 -4.95118,-2.27539 z m 60.24415,9.70703 -4.13282,3.05469 c -2.48659,1.83841 -6.99151,3.38947 -11.30664,3.89257 -8.72597,1.01734 -15.6826,5.67837 -13.10742,8.78125 2.89429,3.48742 16.09392,11.6177 21.13867,13.01954 3.48866,0.96943 8.62692,0.87324 17.77735,-0.33204 12.24548,-1.61293 13.11828,-1.56113 18,1.08008 2.82175,1.5267 5.29588,2.81614 5.49804,2.86524 0.20216,0.0491 -0.53672,-1.56147 -1.64062,-3.57813 -2.7453,-5.01531 -5.92341,-8.48886 -11.13281,-12.16992 -4.63407,-3.27449 -4.76986,-3.27253 -18.26172,0.33203 -5.42731,1.45 -9.28636,1.7713 -12,1 l -4,-1.13672 5.33398,-0.90625 c 2.93334,-0.49879 8.03204,-1.95028 11.33203,-3.22461 7.45429,-2.87858 7.86033,-6.09129 1.25196,-9.92383 z m 55.09179,40.01367 c -1.07723,0.005 -2.50256,0.25734 -3.82617,0.71875 -2.11779,0.73827 -5.64917,1.07823 -7.8457,0.75586 -2.19654,-0.32239 -3.82613,-0.17952 -3.62305,0.31836 0.20308,0.49788 3.66784,7.89344 7.70117,16.43359 l 7.33399,15.52735 8.2539,0.008 c 4.54005,0.004 8.59608,-0.54233 9.01172,-1.21484 0.41564,-0.67252 1.1312,-3.9716 1.5918,-7.33204 l 0.83789,-6.10937 -5.94336,0.81445 c -4.56493,0.6257 -7.21375,0.1654 -11.42383,-1.98242 -9.36847,-4.77943 -8.79016,-6.62735 1.33789,-4.27539 2.75,0.6386 5,0.9728 5,0.74414 0,-1.63556 -5.78863,-13.42817 -6.9414,-14.14062 -0.29721,-0.18368 -0.81851,-0.26854 -1.46485,-0.26563 z m -105.42187,53.12891 c -0.53206,0.0721 0.23526,1.57798 1.29687,4.14453 1.17449,2.8394 7.02456,14.46342 13,25.83008 l 10.86524,20.66601 0.66601,-12 0.66797,-12 5,20 c 8.7858,35.1434 10.33203,45.6552 10.33203,70.18945 0,32.32674 -3.83617,65.83563 -9.38476,81.9629 -2.87378,8.35279 -10.88445,19.32057 -25.44141,34.83203 -7.22804,7.70198 -11.0914,13.08009 -12.93164,18 l -2.625,7.01562 8.49609,0.88672 c 15.89634,1.65963 24.57395,5.8104 38.88672,18.60156 10.01346,8.94893 15.63764,12.39755 18.45508,11.31641 3.30924,-1.26988 1.94868,-5.25239 -4.82812,-14.13672 -8.62787,-11.31105 -11.23543,-19.02401 -11.26758,-33.33398 -0.0216,-9.62468 0.61153,-12.94147 4.19531,-22 4.67117,-11.80712 8.44531,-29.45407 8.44531,-39.48047 0,-3.98401 0.59043,-6.51953 1.51758,-6.51953 2.68509,0 0.48806,36.17893 -2.95508,48.66601 -4.15673,15.07499 -4.42343,19.05604 -2.05273,30.51953 2.41094,11.65803 5.34906,17.99775 12.0625,26.03321 5.37358,6.43175 5.99391,10.95421 2.76172,20.11523 -1.1,3.11773 -2,5.98493 -2,6.37305 0,1.74591 5.92552,-4.90997 8.91992,-10.01953 4.67735,-7.98132 6.91331,-17.52846 7.89062,-33.6875 0.90744,-15.00404 -1.1023,-49.36037 -4.19531,-71.71485 -6.11114,-44.16788 -29.30015,-135.44335 -41.8457,-164.71094 -2.02059,-4.7138 -3.80524,-6.44609 -9.625,-9.34765 -3.92966,-1.9592 -10.08077,-5.8114 -13.66992,-8.56055 -7.1191,-5.45295 -9.95264,-7.73329 -10.63672,-7.64062 z m -23.82813,85.97461 c -1.55014,0 -1.1499,16.72046 1.50196,62.82031 2.27777,39.59686 2.61864,42.5069 5.62304,47.93359 4.69607,8.48219 13.16082,12.65791 26.53125,13.08985 4.16068,0.1344 5.15256,-0.56054 9.13672,-6.40625 3.99509,-5.86176 4.3669,-7.16793 3.51367,-12.33008 -1.37804,-8.33747 -9.16054,-15.36959 -22.33008,-20.17578 -11.51868,-4.20373 -15.65234,-8.19437 -15.65234,-15.11133 0,-4.06029 4.51239,-19.26731 9.83789,-33.1543 2.28909,-5.96912 2.87621,-19.33203 0.84961,-19.33203 -0.72164,0 -5.0668,-3.9013 -9.65625,-8.66797 -4.58944,-4.76665 -8.79991,-8.66601 -9.35547,-8.66601 z"
         transform="translate(-28.688171,-10.666666)" />
      <path
         style="fill:#ffcc00;stroke-width:1.33333"
         d="m 472.00001,161.33333 c 1.46667,-1.46667 2.66153,-3.11667 2.65527,-3.66667 -0.012,-1.03476 -14.04107,-5.73458 -16.9886,-5.6912 -2.42048,0.0356 -2.0433,6.73172 0.53998,9.58622 2.98551,3.29894 10.38862,3.17638 13.79335,-0.22835 z"
         id="path3403"
         transform="translate(-28.688171,-10.666666)" />
      <path
         id="path3449"
         style="fill:#ffcc00;stroke-width:1.33333"
         d="m 479.98895,22.666666 c -1.87637,0 -6.65625,6.85196 -6.65625,9.542969 0,2.320647 -0.2394,2.362098 -3.0664,0.509765 -2.73791,-1.793943 -3.38161,-1.789078 -6,0.04492 -3.706,2.595785 -3.76046,5.375492 -0.125,6.326172 3.50427,0.91639 2.71649,3.638277 -1.78711,6.177734 -2.87126,1.619013 -3.78306,1.644414 -5.57618,0.15625 -1.59867,-1.326776 -1.77191,-2.226928 -0.67968,-3.542968 0.80551,-0.970578 1.11817,-2.323594 0.69531,-3.007813 -1.28911,-2.085818 -7.35896,-3.022352 -10.09766,-1.55664 -2.07091,1.108321 -2.86566,0.857287 -4.0039,-1.269532 -0.78094,-1.459181 -2.52647,-3.244948 -3.87891,-3.96875 -2.30326,-1.232669 -2.26667,-0.621859 0.58984,9.636719 1.67729,6.023656 3.69113,13.388896 4.47461,16.369141 l 1.42579,5.419922 9.68164,-1.699219 c 5.32507,-0.934471 15.98164,-1.711982 23.68164,-1.726563 13.06138,-0.02473 29.03812,1.534431 33.58007,3.277344 1.54694,0.593615 2.90004,-2.730141 6.2793,-15.439453 2.36853,-8.908009 4.04349,-16.458466 3.72266,-16.779297 -0.32082,-0.320831 -2.03525,1.140545 -3.8086,3.248047 -2.69853,3.207041 -3.70425,3.616502 -6.17578,2.513672 -2.02167,-0.902091 -4.01045,-0.83439 -6.30468,0.210937 -2.70444,1.232223 -3.1894,2.169004 -2.51368,4.861328 1.09592,4.366471 -2.28073,5.764522 -6.78906,2.810547 -4.01246,-2.629064 -4.25958,-4.786223 -0.65625,-5.728515 3.3616,-0.879079 3.36842,-2.350273 0.0293,-5.689453 -2.64347,-2.643462 -5.32564,-2.496386 -9.28516,0.509765 -1.46361,1.111204 -1.67994,1.056812 -0.90625,-0.230469 1.06204,-1.767081 -3.84573,-10.976562 -5.84961,-10.976562 z m -9.32226,24.359375 c 0.89471,0 1.79007,0.505968 3.33398,1.517578 3.78274,2.478537 3.84476,2.676373 1.95313,6.210938 -1.56433,2.922958 -7.81823,3.513805 -10.35352,0.978515 -2.47388,-2.47387 -1.91393,-4.800271 1.73242,-7.189453 1.54392,-1.01161 2.43928,-1.517578 3.33399,-1.517578 z m 17.39257,0.103516 c 3.20137,0.05788 7.94141,2.993225 7.94141,5.300781 0,4.612835 -8.7731,6.791441 -11.94726,2.966797 -2.11999,-2.554423 -0.59935,-7.04367 2.74609,-8.105469 0.37628,-0.119428 0.80243,-0.170377 1.25976,-0.162109 z m -35.27148,2.43164 c 0.79511,-0.0022 1.60978,0.08434 2.33984,0.267578 2.62371,0.658505 3.53907,1.73326 3.53907,4.150391 0,4.733912 -6.13783,7.582413 -10.44922,4.849609 -2.29399,-1.454056 -1.51415,-6.827879 1.24219,-8.554687 0.73114,-0.45805 2.00293,-0.709222 3.32812,-0.712891 z m 53.73438,0.439453 c 5.41602,0 8.28923,3.351233 6.00195,7 -1.88369,3.004929 -5.87955,3.586039 -8.99414,1.308594 -1.52617,-1.115967 -2.27673,-3.021122 -1.99024,-5.050781 0.38463,-2.72488 1.20166,-3.257813 4.98243,-3.257813 z"
         transform="translate(-28.688171,-10.666666)" />
      <path
         id="path3453"
         style="fill:#ff00ff;stroke-width:1.33333"
         d="m 470.77801,50.666666 c -2.76975,0 -3.60012,1.399875 -1.86132,3.138672 1.23529,1.235294 3.46185,0.393767 4.11132,-1.554688 0.29482,-0.884443 -0.69833,-1.583984 -2.25,-1.583984 z m 17.57032,0.125 c -1.41961,-0.01659 -1.99065,0.963974 -1.07032,2.453125 1.10717,1.791439 2.97978,1.828793 4.06055,0.08008 0.45642,-0.738511 -0.13439,-1.713934 -1.3125,-2.166016 -0.63821,-0.244906 -1.20453,-0.361656 -1.67773,-0.367187 z m -34.8711,1.449219 c -0.12622,-0.0015 -0.25846,0.0191 -0.39453,0.06445 -2.47229,0.824097 -2.88191,3.695312 -0.52734,3.695312 1.16111,0 2.11133,-0.950219 2.11133,-2.111328 0,-0.979687 -0.50785,-1.640371 -1.18946,-1.648437 z m 53.16602,0.08398 c -0.72127,-0.003 -1.31055,0.49754 -1.31055,1.564453 0,1.161109 0.95023,2.111328 2.11133,2.111328 1.16112,0 1.87426,-0.713152 1.58398,-1.583984 -0.45067,-1.352036 -1.51427,-2.088158 -2.38476,-2.091797 z"
         transform="translate(-28.688171,-10.666666)" />
    </g>
  </g>
</svg>
