<?xml version="1.0" encoding="UTF-8" standalone="no"?>
<!-- Created with Inkscape (http://www.inkscape.org/) -->

<svg
   version="1.1"
   id="svg1"
   width="934.47626"
   height="1070.5243"
   viewBox="0 0 934.47622 1070.5243"
   sodipodi:docname="180b.svg"
   inkscape:version="1.3.2 (091e20ef0f, 2023-11-25)"
   xmlns:inkscape="http://www.inkscape.org/namespaces/inkscape"
   xmlns:sodipodi="http://sodipodi.sourceforge.net/DTD/sodipodi-0.dtd"
   xmlns="http://www.w3.org/2000/svg"
   xmlns:svg="http://www.w3.org/2000/svg">
  <defs
     id="defs1" />
  <sodipodi:namedview
     id="namedview1"
     pagecolor="#ffffff"
     bordercolor="#000000"
     borderopacity="0.25"
     inkscape:showpageshadow="2"
     inkscape:pageopacity="0.0"
     inkscape:pagecheckerboard="0"
     inkscape:deskcolor="#d1d1d1"
     showgrid="false"
     inkscape:zoom="0.97"
     inkscape:cx="535.05155"
     inkscape:cy="284.02062"
     inkscape:window-width="1920"
     inkscape:window-height="1011"
     inkscape:window-x="0"
     inkscape:window-y="0"
     inkscape:window-maximized="1"
     inkscape:current-layer="layer1" />
  <g
     inkscape:groupmode="layer"
     id="layer1"
     inkscape:label="Layer 1"
     transform="translate(-62.756273,-51.92628)">
    <path
       style="fill:#000000"
       d="m 656.00004,1120 c -1.75406,-3.2775 -3.89366,-3.3544 -9.26824,-0.3333 -4.0617,2.2831 -4.20051,2.2686 -6.45172,-0.6728 -2.09994,-2.7438 -2.68319,-2.8617 -6.68369,-1.3517 -5.68078,2.1442 -7.32886,-0.014 -6.30703,-8.2592 1.01252,-8.17 6.36273,-13.4064 17.74499,-17.3675 17.11584,-5.9564 22.47342,-9.0359 29.57403,-16.9991 3.76796,-4.2257 8.42019,-10.8888 10.33829,-14.8069 l 3.48745,-7.1238 -3.51925,-6.8762 c -5.4653,-10.6785 -22.69272,-40.4556 -29.81989,-51.54283 -7.34427,-11.42496 -14.23464,-16 -24.09724,-16 -11.46033,0 -20.45956,7.32017 -25.79131,20.9792 -2.59686,6.65273 -3.0146,10.28973 -3.10358,27.02083 -0.0575,10.816 0.74547,24.7786 1.82268,31.6935 1.74471,11.1997 1.72416,12.5616 -0.21888,14.5046 -1.22277,1.2228 -12.65151,4.6058 -26.59216,7.8716 -14.16667,3.3187 -31.87099,8.5734 -42.09966,12.4954 -9.70852,3.7225 -18.46222,6.7682 -19.45264,6.7682 -0.99043,0 -2.51411,-1.5656 -3.38595,-3.4791 -1.4931,-3.277 -1.95076,-3.4203 -7.88068,-2.4688 -10.65145,1.7092 -11.5889,1.5637 -12.07533,-1.8745 -0.41929,-2.9636 -0.8861,-3.1193 -7.66667,-2.557 -6.11397,0.5071 -7.22019,0.2551 -7.22019,-1.6442 0,-4.1932 7.51478,-12.6299 14.76948,-16.5814 6.77863,-3.6921 8.48045,-3.9961 27.23052,-4.864 12.20703,-0.565 22.85742,-1.7878 27.33333,-3.1383 16.3841,-4.9435 32.72967,-10.4483 33.73641,-11.3617 0.58836,-0.5337 -0.74158,-7.9466 -2.95542,-16.473 -2.21383,-8.5264 -5.59392,-23.7208 -7.5113,-33.7654 -1.91738,-10.04458 -5.90002,-24.90707 -8.85032,-33.02774 C 550.03813,938.35552 549.05955,934.14041 548.3718,914 c -1.15433,-33.80401 3.36719,-44.98031 30.69733,-75.8778 l 6.40243,-7.23812 -2.73576,-14.17639 c -1.50467,-7.79702 -2.74395,-16.39594 -2.75397,-19.10871 -0.0297,-8.04269 -1.28046,-11.12302 -4.14708,-10.21319 -3.04921,0.96779 -3.0666,0.56909 -0.31442,-7.20684 2.0906,-5.90672 2.02568,-7.38093 -1.47373,-33.46141 -2.01337,-15.00536 -4.19603,-28.69054 -4.85034,-30.4115 l -1.18966,-3.12904 -3.34041,3.74483 c -2.96312,3.32188 -3.49028,3.49519 -4.66737,1.53449 -6.67195,-11.11355 -22.01897,-25.12412 -39.33212,-35.90699 -5.13333,-3.19711 -13.23333,-8.61755 -18,-12.04542 -5.59335,-4.02237 -10.72112,-6.56619 -14.46017,-7.1735 -5.2651,-0.85517 -6.17715,-0.57099 -10,3.11585 -5.21928,5.0336 -9.98085,6.88707 -17.69284,6.88707 -17.02939,0 -28.57402,-18.50067 -25.27452,-40.50329 1.1491,-7.66277 7.07227,-14.16337 12.90527,-14.16337 2.16661,0 4.21956,0.75 4.56213,1.66666 0.34256,0.91667 0.77373,7.18725 0.95815,13.93463 0.22768,8.33023 0.92538,12.8239 2.17367,14 1.55415,1.46426 1.73378,0.49522 1.16189,-6.26796 -0.37206,-4.4 -0.26738,-9.5 0.23261,-11.33333 0.5,-1.83334 0.42727,-6.33334 -0.16161,-10 -0.95552,-5.94956 -0.7569,-6.92664 1.84653,-9.0835 1.60447,-1.32926 4.60434,-2.75426 6.66638,-3.16667 3.34046,-0.66809 3.74918,-1.31635 3.74918,-5.94654 0,-6.32502 -8.10469,-83.25965 -12.83139,-121.80329 -1.88853,-15.4 -3.9272,-34.33443 -4.53035,-42.0765 -1.61731,-20.75949 -6.6774,-65.73992 -7.48692,-66.55312 -1.81191,-1.82012 -29.50529,-1.44104 -42.77342,0.58551 -38.72329,5.91453 -77.73898,20.96923 -111.71127,43.10519 -18.68129,12.17253 -28.66667,21.08039 -28.66667,25.57327 0,5.08867 -3.94516,9.81465 -7.16248,8.58005 -2.04129,-0.78332 -2.35771,-1.96685 -1.81444,-6.78668 0.53001,-4.70219 0.18731,-6.08982 -1.76154,-7.13281 -3.93208,-2.10439 -42.22642,-1.56186 -54.53258,0.77258 -35.27562,6.69167 -73.06157,28.41436 -109.127279,62.73596 -8.635133,8.21754 -11.576481,11.99243 -13.394265,17.19002 -2.420632,6.92132 -5.389308,8.89864 -8.938147,5.95337 -2.877515,-2.38813 -2.349774,-6.69742 1.290858,-10.54055 1.787474,-1.8869 4.804287,-8.46158 6.763327,-14.73963 16.753771,-53.69005 28.424276,-84.58467 44.574746,-118 39.61578,-81.96509 97.98846,-149.14293 168.38513,-193.785 34.99107,-22.18961 103.82468,-54.21534 129.71668,-60.35238 11.05896,-2.62125 11.32997,-2.91331 11.3601,-12.24286 0.0147,-4.55753 -1.27343,-19.218734 -2.86255,-32.580448 -2.34835,-19.745472 -2.57243,-24.675842 -1.19684,-26.333333 2.35222,-2.834253 14.11803,-2.810567 15.20829,0.03062 0.43687,1.13846 2.56666,13.634716 4.73287,27.769458 2.1662,14.134743 4.70326,27.377873 5.63789,29.429173 1.87468,4.11447 1.27746,4.09784 26.45358,0.73675 4.76667,-0.63637 29.36667,-0.97798 54.66667,-0.75915 42.41908,0.3669 60.58433,1.54593 83.33334,5.40881 2.2,0.37357 6.1,1.01916 8.66667,1.43464 7.07878,1.14588 36.79276,8.38753 47.33333,11.53569 17.10322,5.10824 43.63119,15.68852 62.58661,24.96172 16.49099,8.06758 23.14484,11.61663 40.08007,21.37806 15.43817,8.89853 47.33745,31.08716 58.51425,40.70159 0.8525,0.73333 5.43555,4.62103 10.18454,8.63933 25.36129,21.4591 57.99016,54.33318 83.67089,84.29969 7.81723,9.12182 12.3871,13.32395 15.66727,14.4065 5.14749,1.69883 7.42017,6.62552 4.61535,10.00512 -2.42979,2.92773 -4.37474,2.45143 -8.73617,-2.13942 -6.057,-6.3756 -14.8493,-10.1677 -41.71917,-17.99341 -24.96867,-7.272 -39.90341,-9.23888 -69.53029,-9.15705 -18.54158,0.0512 -23.88642,0.54707 -34.00001,3.15421 -14.27145,3.67899 -47.03989,17.75662 -50.29711,21.60811 -2.18466,2.58324 -2.162,2.89896 0.46271,6.44908 3.04319,4.11613 2.93051,8.48022 -0.23469,9.08979 -2.02252,0.3895 -4.48566,-1.62721 -8.94538,-7.32408 -2.98451,-3.81243 -22.64647,-8.96053 -44.80475,-11.73123 -14.91679,-1.86522 -53.8028,-2.64288 -64.84745,-1.29684 -17.51078,2.13407 -32.46531,4.84753 -40.00001,7.25791 -1.83333,0.58649 -8.43333,2.68199 -14.66666,4.65666 -14.22662,4.50688 -30.07588,12.70768 -29.7857,15.41185 0.11788,1.09841 0.64288,3.94711 1.16667,6.33044 0.91718,4.17328 0.79724,4.33334 -3.24731,4.33334 -3.25924,0 -4.4851,-0.75075 -5.47432,-3.35259 -4.54703,-11.95958 -13.49844,-14.99246 -29.12758,-9.86886 -11.0279,3.61521 -34.4429,14.57161 -38.73797,18.12638 -2.82552,2.3385 -3.17643,3.64595 -2.95541,11.01161 0.13793,4.59693 1.75312,20.14627 3.58931,34.55409 4.04543,31.74288 5.55194,45.43596 7.20955,65.52937 1.74435,21.14499 11.92767,121.00878 12.88247,126.33333 0.42738,2.38333 1.3696,4.33333 2.09383,4.33333 4.92814,0 11.22857,5.23113 16.74652,13.9043 7.16605,11.26366 8.30912,12.26377 16.9501,14.83023 12.87511,3.82403 22.90331,4.82395 27.81164,2.77312 7.3958,-3.09016 14.43634,-15.69492 7.54486,-13.50765 -3.13574,0.99525 -3.52673,-0.95969 -0.66667,-3.33333 1.1,-0.91292 2.00257,-2.63639 2.00571,-3.82993 0.003,-1.19354 1.83325,-4.87007 4.06691,-8.17007 2.23366,-3.3 4.95559,-7.66758 6.04874,-9.70573 1.97807,-3.6881 1.97016,-3.70138 -1.66249,-2.78964 l -3.65002,0.9161 3.03157,-3.85402 3.03157,-3.85402 -3.45564,-2.75543 -3.45564,-2.75543 8.71124,-7.2062 c 4.79119,-3.9634 10.95003,-10.45906 13.68632,-14.4348 4.42914,-6.43538 4.9728,-8.12646 4.95434,-15.41082 -0.0168,-6.60905 -0.76789,-9.45716 -3.90679,-14.81328 -5.72467,-9.76841 -14.55165,-18.58934 -27.71552,-27.69653 -6.42966,-4.44824 -11.6903,-8.55611 -11.6903,-9.1286 0,-0.57248 -1.5,-2.6594 -3.33333,-4.6376 -1.83333,-1.9782 -3.33333,-4.31612 -3.33333,-5.19538 0,-0.87926 -1.2,-2.68464 -2.66667,-4.01195 -1.46667,-1.32732 -2.66667,-3.84598 -2.66667,-5.59703 0,-2.20218 -3.19669,-6.3519 -10.36877,-13.46001 -7.17617,-7.11217 -11.03612,-12.12373 -12.53615,-16.2763 -1.19206,-3.3 -4.06431,-11.1 -6.38277,-17.33333 -6.2264,-16.74005 -4.71913,-20.62014 10.31158,-26.54469 6.06716,-2.39145 10.26898,-2.60718 52.51159,-2.69605 25.2542,-0.0531 50.40371,0.4723 55.88779,1.16762 9.51502,1.20638 28.04045,6.30567 36.57674,10.06806 2.2,0.96966 8.5,3.7189 14,6.10944 5.5,2.39053 10.39042,4.93399 10.86759,5.65213 0.49078,0.73861 3.38621,-0.73488 6.66667,-3.3927 10.55453,-8.55125 16.38185,-10.51196 31.2421,-10.51196 14.42051,0 20.17644,1.9824 27.3977,9.43605 18.22489,18.81141 15.05433,50.91882 -6.60077,66.84416 -7.37569,5.42414 -17.42553,10.1237 -23.90662,11.17934 -5.4622,0.88969 -7.05934,2.33717 -4.39541,3.98357 0.69919,0.43212 2.60533,2.65921 4.23587,4.94909 l 2.96462,4.16343 -3.73785,-0.93814 c -3.25215,-0.81624 -3.6048,-0.62615 -2.71396,1.46292 1.82673,4.28381 2.4372,10.1743 0.9598,9.26121 -1.97045,-1.2178 -2.70584,9.85072 -1.44284,21.7164 0.6527,6.13194 2.36548,12.58876 4.49278,16.93682 3.94152,8.05616 14.57286,18.26527 21.34979,20.50186 6.02749,1.98925 5.87249,3.72018 -0.37946,4.23762 l -5,0.41382 7.67161,6 7.67161,6 -4.00495,0.41781 c -2.20271,0.2298 -4.00494,0.76757 -4.00494,1.19506 0,0.42749 2.85,3.83947 6.33333,7.58219 5.87132,6.30852 6.11449,6.83602 3.33334,7.23101 -1.65,0.23434 -3,0.95319 -3,1.59744 0,0.64426 3.11062,4.90917 6.91249,9.47759 4.17941,5.02206 5.89274,7.8891 4.33334,7.25128 -7.67749,-3.14023 -9.60622,-1.96131 -4.42975,2.70764 1.54884,1.39699 5.80493,5.9862 9.45798,10.19824 l 6.6419,7.65826 -4.12465,-0.82492 c -5.08711,-1.01743 -5.13607,-0.17664 -0.34839,5.98319 4.98369,6.41203 6.41034,8.8766 4.42976,7.65253 -3.02953,-1.87235 -1.44298,1.95331 4.46065,10.75596 6.33592,9.44722 8.1184,14.78048 3.56168,10.6567 -1.34107,-1.21365 -2.7845,-2.20665 -3.20761,-2.20665 -0.4231,0 1.51552,5.25 4.30806,11.66667 2.79254,6.41667 5.46768,13.16667 5.94475,15 l 0.86741,3.33333 -2.73715,-3.14771 c -1.50542,-1.73124 -2.73714,-2.55128 -2.73714,-1.82231 0,0.72898 2.714,10.78145 6.03111,22.33883 3.31711,11.55738 5.73211,21.31242 5.36667,21.67786 -0.36544,0.36544 -1.85947,-0.77056 -3.32008,-2.52445 -3.4344,-4.124 -3.39232,-3.08433 0.58897,14.55255 3.92469,17.38612 4.19639,21.38246 1.06005,15.5919 -3.34464,-6.17515 -3.47409,-2.22692 -0.47602,14.51867 3.21255,17.94358 3.24641,18.54364 0.79848,14.148 -1.68076,-3.01806 -1.94582,-3.1027 -2.80241,-0.89488 -0.52035,1.34115 -0.58631,6.29115 -0.14659,11 0.82483,8.83296 -0.20169,10.78926 -2.9183,5.56154 -1.22789,-2.36289 -1.44437,1.88163 -1.01936,19.98664 0.50673,21.58599 -0.37924,27.82693 -2.41207,16.99104 -1.86004,-9.91488 -3.04535,-2.40859 -3.94393,24.97604 -1.02168,31.1359 -1.86127,39.62787 -3.64049,36.82123 -0.61886,-0.97622 -1.13438,-3.12495 -1.14561,-4.77495 -0.0112,-1.65 -0.55844,-3 -1.21603,-3 -0.65759,0 -1.93686,5.25 -2.84283,11.66667 -0.90597,6.41667 -2.12991,12.86667 -2.71987,14.33333 -0.98466,2.4479 -1.09549,2.39321 -1.351,-0.66666 -0.15308,-1.83334 -0.13628,-5.35263 0.0373,-7.82066 0.54274,-7.71529 -2.03048,-3.49449 -5.93944,9.74237 -3.15751,10.69222 -3.99651,12.33206 -5.35735,10.471 -1.46587,-2.0047 -1.75911,-1.93463 -3.20424,0.76562 -2.08649,3.89864 -0.49635,8.85782 8.3929,26.175 5.70321,11.11043 8.95623,15.47041 19.51219,26.1519 10.56009,10.6856 14.5537,13.7374 24.00126,18.3411 15.51109,7.5584 29.23958,10.8282 49.33333,11.7502 36.61505,1.68 66.36753,-8.7866 91.73233,-32.2705 24.84696,-23.00447 37.55297,-54.38137 35.88216,-88.60932 -0.89025,-18.23739 -3.84143,-29.26479 -16.19638,-60.51943 -4.67672,-11.83084 -9.72316,-25.50778 -11.21431,-30.39321 -5.47401,-17.93445 -6.594,-38.6572 -2.64995,-49.03065 1.85294,-4.87349 3.22637,-1.65318 4.25158,9.96872 1.53354,17.38439 5.64863,29.41955 20.72433,60.61119 21.56049,44.60864 25.20855,58.10575 23.75511,87.88924 -2.37066,48.57911 -32.69437,92.59096 -80.82978,117.31646 -24.87307,12.7764 -51.16432,18.1428 -83.45509,17.0343 -46.60181,-1.5999 -75.97061,-16.6909 -106.60031,-54.7759 C 720.99542,1009.1588 716.4333,1004 715.92834,1004 c -0.95666,0 -1.86666,6.0118 -3.37262,22.2811 -0.74309,8.0277 -0.3869,11.1488 2.15836,18.9126 2.93181,8.9428 2.96409,9.5181 0.84456,15.0522 -2.46831,6.4449 -7.99569,15.7218 -21.17541,35.5399 -4.92256,7.402 -10.147,15.8043 -11.60987,18.6718 -3.23664,6.3443 -5.77313,7.5243 -8.85472,4.1191 -3.13046,-3.4591 -6.25382,-3.2444 -11.0088,0.7566 -4.77951,4.0217 -5.09783,4.0524 -6.90983,0.6667 z"
       id="path1" />
    <path
       id="path2"
       style="display:inline;fill:#803300"
       d="M 542.66448 411.16261 C 526.57849 411.55088 514.50934 412.73433 510.10198 414.62355 C 504.42379 417.05749 504.26973 417.27952 505.28166 421.56886 C 508.33869 434.52691 511.13691 443.69447 513.36955 448.07081 C 518.39121 457.91406 537.76405 471.95001 546.37932 471.98683 C 548.95991 471.99783 549.22003 471.6131 548.07268 469.46925 C 547.32761 468.07707 543.55588 463.47691 539.69182 459.24659 C 535.82776 455.0163 533.86579 452.20485 535.33244 453.0005 C 538.38575 454.65687 544.33611 460.89644 550.32659 468.72316 C 553.50052 472.87 556.16733 474.65267 561.89299 476.45753 C 565.98556 477.7476 569.33244 479.373 569.33244 480.06886 C 569.33244 480.76472 566.63244 481.33253 563.33244 481.33253 C 559.66327 481.33253 557.33244 481.93572 557.33244 482.88331 C 557.33244 486.605 574.23284 512.42591 575.96721 511.35401 C 577.63608 510.32261 608.89645 525.36485 618.1508 531.65284 C 640.7022 546.97574 651.36107 562.84532 654.56291 585.86573 C 657.71076 608.49789 655.40965 626.34235 647.34416 641.82081 L 642.57268 650.97706 L 649.13909 657.92042 C 656.78284 666.00256 660.96048 673.57682 662.59221 682.31105 C 663.65814 688.01667 663.41971 689.0285 659.75432 694.35597 C 657.55335 697.55495 647.03638 708.98329 636.38323 719.75245 C 624.42741 731.83845 614.17327 743.61758 609.59026 750.52784 C 605.50657 756.6852 598.97768 765.16623 595.08244 769.37355 C 591.18722 773.58085 588.00041 777.65677 588.00041 778.43214 C 588.00041 780.96158 590.78443 781.63774 593.0844 779.66651 C 598.9194 774.66554 602.66643 776.88859 602.66643 785.35011 C 602.66643 792.55401 604.5343 792.9329 607.32073 786.29542 L 609.68401 780.66651 L 610.63518 785.68214 C 612.36107 794.79034 612.94851 793.94037 619.18205 773.33253 C 623.28233 759.77721 626.4998 754.21817 632.32073 750.63331 C 634.71075 749.16139 646.26712 744.91269 658.00041 741.19191 C 687.8241 731.73441 706.9231 722.34427 715.56096 712.89308 C 720.2232 707.79184 722.76123 703.61221 723.92815 699.11769 C 724.84943 695.56922 726.0947 691.16587 726.69573 689.33253 C 728.78485 682.95995 728.12189 698.96885 725.95159 707.30128 C 724.82541 711.62495 724.16873 715.8491 724.49065 716.688 C 725.11818 718.32333 720.74877 754.47868 718.85393 763.33253 C 716.67619 773.50826 712.83512 783.39805 706.2426 795.80323 C 700.90945 805.83867 699.97947 808.50271 701.47502 809.44972 C 702.87854 810.33845 702.61892 810.63156 700.41252 810.64698 C 698.8058 810.65818 697.18445 811.16451 696.80901 811.77198 C 696.43358 812.37945 699.39808 812.60359 703.3969 812.27198 C 707.39571 811.94037 710.66643 812.00986 710.66643 812.42433 C 710.66643 812.8388 707.11157 815.07107 702.76604 817.38722 C 693.55664 822.29577 681.85729 833.4334 674.42034 844.37159 C 657.22175 869.6671 649.48909 912.58969 655.2719 950.66651 C 659.42217 977.99407 667.48029 998.01371 686.44182 1028.1099 C 692.25518 1037.337 697.4299 1046.206 697.94182 1047.8189 C 699.07498 1051.3892 693.64241 1061.6137 683.12737 1075.6997 C 673.68312 1088.3513 667.55833 1092.7508 657.68205 1093.9751 C 653.45741 1094.4988 648.19039 1095.679 645.97893 1096.5982 C 640.36191 1098.933 630.36165 1110.6665 633.98869 1110.6665 C 634.34901 1110.6665 637.25959 1108.67 640.45744 1106.229 C 646.32985 1101.7465 656.49971 1098.0212 660.54338 1098.8716 C 662.35184 1099.2519 662.01063 1100.2142 658.61565 1104.3208 C 653.28222 1110.7721 655.3029 1115.3211 660.94768 1109.5708 C 664.79104 1105.6556 671.57346 1101.3325 673.87346 1101.3325 C 676.34191 1101.3325 676.42234 1101.8812 674.78948 1107.5747 C 674.12317 1109.898 673.95832 1112.1811 674.42424 1112.647 C 676.3724 1114.5952 683.52501 1103.1807 694.84221 1080.061 L 706.88713 1055.4556 L 705.78948 1041.395 C 705.18605 1033.6616 704.8698 1023.1338 705.0883 1018.0005 C 705.57601 1006.5427 708.75487 986.72941 710.8383 982.15675 L 712.37737 978.77589 L 718.5219 982.27589 C 725.59438 986.30498 730.66643 990.54852 730.66643 992.438 C 730.66643 994.51847 747.15537 1018.6937 753.41448 1025.7896 C 761.08574 1034.4865 774.64365 1044.5733 786.03166 1050.0552 C 819.66109 1066.2436 875.71453 1064.373 912.31682 1045.8423 C 940.50497 1031.5714 968.71447 1002.896 979.20549 977.84816 C 987.01571 959.20088 989.86738 945.53757 989.74846 927.33253 C 989.62991 909.18336 987.11287 895.30676 981.18791 880.12355 C 976.38857 867.82478 962.39401 838.49361 961.67034 839.2173 C 961.38386 839.50378 964.40878 847.14855 968.39299 856.20362 C 977.10542 876.0047 980.68515 886.60242 983.3383 900.46925 C 985.93375 914.03445 985.88305 936.10174 983.22698 949.05714 C 976.14115 983.61909 952.06086 1014.5032 919.20159 1031.1743 C 900.40694 1040.7097 886.40854 1044.0018 860.66643 1044.9419 C 826.52687 1046.1886 799.47615 1038.1333 776.53362 1019.8892 C 764.29372 1010.1559 751.38435 994.46623 748.27385 985.54347 C 747.44249 983.15863 745.54011 979.65611 744.04729 977.75831 C 742.55448 975.8605 741.33244 973.74006 741.33244 973.04737 C 741.33244 972.35467 739.81405 967.99089 737.95744 963.35011 L 734.58244 954.91261 L 739.47502 946.01026 C 742.7035 940.13679 744.71976 937.6759 745.4008 938.77784 C 746.92164 941.23861 751.32642 933.34732 755.51018 920.66651 C 757.44576 914.79986 759.25331 909.74332 759.52776 909.43019 C 759.80221 909.11706 760.90202 910.01706 761.97112 911.43019 C 763.82485 913.88045 763.917 913.82716 763.95744 910.28956 C 763.98074 908.24934 764.90041 904.42612 766.00041 901.79347 C 767.46665 898.28427 768.00364 891.80302 768.01213 877.50441 C 768.01813 866.77733 768.40289 854.8345 768.8676 850.96534 C 769.67866 844.21242 769.8123 844.02072 772.18987 846.17237 C 774.5911 848.34547 774.66698 847.88918 774.69573 831.20753 L 774.72698 814.0005 L 777.46721 817.33253 L 780.20744 820.66651 L 779.39885 797.33253 C 778.9537 784.49922 777.7368 767.70048 776.69377 760.0005 C 775.65074 752.30052 774.42418 742.9992 773.96916 739.33253 L 773.14299 732.66651 L 775.90471 735.81495 C 780.01044 740.49359 779.48662 737.42345 772.51409 715.95753 C 768.12883 702.45689 766.8031 696.73872 767.90276 696.05909 C 768.97435 695.39681 767.79197 691.98454 764.03166 684.88722 C 759.83066 676.95808 759.08984 674.66651 760.72698 674.66651 C 762.27081 674.66651 761.38284 672.59361 757.41838 666.94191 C 751.30397 658.22518 750.85557 656.72268 754.66643 657.71925 C 758.35148 658.68291 758.0454 657.77624 752.67034 651.82667 C 750.10521 648.98737 746.62388 643.81545 744.93596 640.33253 C 743.24803 636.84961 739.94696 631.36001 737.60002 628.13331 C 732.29695 620.84238 731.99661 618.22504 736.66643 620.0005 C 738.49976 620.69753 740.00041 621.05365 740.00041 620.79347 C 740.00041 620.53329 735.78002 613.0255 730.62151 604.10792 C 725.46299 595.19034 721.60841 587.29867 722.05705 586.57276 C 722.50569 585.84686 720.92987 583.04114 718.5551 580.33644 C 713.71795 574.82721 701.38159 550.15762 701.35198 545.93409 C 701.34148 544.43076 701.90637 542.62581 702.60784 541.92433 C 703.41948 541.11267 703.13062 537.34769 701.81291 531.57081 C 699.90927 523.22511 699.92108 522.29785 701.94182 520.06495 C 704.01255 517.77683 703.8647 517.46712 699.40276 514.70948 C 693.58075 511.11129 693.49137 510.00297 698.87151 508.12745 C 703.00595 506.68617 703.03574 506.61628 700.61369 503.93995 C 698.20856 501.28229 698.21685 501.2003 701.01994 500.4673 C 703.60977 499.79004 703.08043 498.934 695.61174 491.71144 C 686.90259 483.28929 686.88385 480.19228 695.57463 485.7798 C 702.90342 490.49162 710.06435 492.43331 716.46916 491.44191 C 730.95276 489.19994 746.13393 476.60322 749.98674 463.62941 C 757.87187 437.07725 741.29593 414.75537 715.92424 417.76026 C 706.97381 418.82031 702.18012 421.60045 690.91057 432.26417 C 680.55209 442.06581 676.62647 443.36531 676.71916 436.96339 C 676.74806 434.96687 676.23443 433.33253 675.57854 433.33253 C 674.92265 433.33253 671.60012 431.44725 668.19377 429.14112 C 664.78744 426.83501 655.09974 422.59327 646.66643 419.71534 C 631.66898 414.59738 630.63146 414.43857 599.33244 412.46925 C 578.85345 411.18072 558.75045 410.77434 542.66448 411.16261 z M 516.40666 417.63526 C 517.44725 417.62386 518.54307 417.7426 519.66643 418.00831 C 522.99872 418.79651 523.81 423.65771 521.06682 426.40089 C 518.7749 428.69281 509.42316 428.45272 508.51213 426.07862 C 506.76303 421.52056 510.7875 417.69691 516.40666 417.63526 z M 719.32268 421.33253 C 727.98396 421.33253 734.03892 423.58678 738.56487 428.49464 L 741.79729 432.0005 L 734.56487 432.00636 C 724.31593 432.01686 717.92485 434.13894 711.99455 439.49659 C 705.92821 444.97718 704.66765 449.41757 707.16252 456.52003 C 709.38416 462.84459 708.70503 465.91858 704.32268 469.36573 C 699.60268 473.07848 693.63165 472.54129 687.38127 467.84425 L 687.38127 467.8462 C 684.47426 465.66161 681.84024 463.61767 681.52776 463.30519 C 681.21528 462.99271 683.14342 460.31861 685.81291 457.36378 C 688.48242 454.40895 690.66643 451.20357 690.66643 450.23878 C 690.66643 449.27399 691.58155 445.40417 692.69963 441.63917 C 696.56967 428.60734 706.10584 421.33253 719.32268 421.33253 z M 612.99846 421.42433 C 616.82938 421.28362 620.32484 423.50819 624.72112 428.14112 C 635.39107 439.38549 637.33244 441.55218 637.33244 442.21925 C 637.33244 442.59397 635.0366 442.51391 632.22893 442.03956 C 628.37559 441.38855 626.6838 441.70694 625.32659 443.3423 C 623.19755 445.90762 616.85367 449.35569 614.39885 449.28175 C 613.44576 449.25305 610.86643 448.4241 608.66643 447.43995 C 603.96375 445.33627 590.91305 432.00574 593.53752 431.98683 C 594.52528 431.97983 597.98503 429.86659 601.22698 427.28956 C 605.97609 423.5145 609.61824 421.54848 612.99846 421.42433 z M 545.03948 438.85987 C 551.46822 438.84637 576.54371 454.62697 598.66643 472.72511 C 606.72892 479.32088 619.99459 492.09104 618.61174 491.92628 C 618.27572 491.88628 610.19974 485.54353 600.66643 477.83058 C 591.13311 470.1176 579.30721 461.30047 574.38713 458.23683 C 569.46708 455.17317 565.41706 451.98887 565.38713 451.16066 C 565.35723 450.33243 560.16713 447.33308 553.85393 444.49464 C 547.54074 441.6562 543.32144 439.14306 544.47698 438.91066 C 544.64482 438.87686 544.8321 438.86037 545.03948 438.85987 z M 597.50823 443.66651 C 598.12496 443.68151 600.86041 445.22188 604.13323 447.42433 C 612.06673 452.76318 614.44199 452.99137 622.31487 449.18019 C 625.518 447.62958 628.43852 446.66126 628.8051 447.02784 C 629.48096 447.7037 617.69487 454.74219 616.16448 454.57667 C 615.70684 454.52717 612.50958 453.7262 609.05901 452.79737 C 603.62875 451.33568 597.51625 446.60484 597.37737 443.75636 C 597.37437 443.69386 597.42007 443.66431 597.50823 443.66651 z M 544.98284 446.80714 C 545.90158 446.79334 549.39087 448.76955 554.31877 452.5337 C 567.56206 462.6495 585.46115 482.23555 592.51799 494.33253 C 594.77703 498.20502 591.94266 495.50519 586.92034 489.0005 C 581.15198 481.52959 559.26115 459.76932 549.33244 451.63526 C 545.36144 448.38204 544.17217 446.81934 544.98284 446.80714 z M 477.35784 612.0005 C 473.1575 612.0005 474.43705 616.20234 479.35002 618.54542 C 483.92186 620.72581 485.13779 622.15267 490.24455 631.33253 C 492.50494 635.39579 494.22219 640.86295 494.64299 645.33253 L 495.33244 652.66651 L 522.42815 670.86378 C 537.33076 680.87169 552.33144 691.45771 555.76213 694.38917 C 561.45666 699.25501 562.20044 699.54137 564.3051 697.67823 C 565.57306 696.55578 567.89773 692.26976 569.47112 688.15284 C 571.45415 682.96405 572.48051 676.78101 572.81487 668.0005 C 574.06811 635.08963 574.20466 617.46186 573.20354 618.08058 C 572.60064 618.4532 570.18444 622.36481 567.8344 626.77394 C 565.48435 631.18307 561.18874 637.16373 558.28752 640.06495 C 553.98104 644.37144 553.30834 645.69557 554.62151 647.27784 C 559.24724 652.85152 549.66613 653.4126 529.18401 648.76612 C 509.79732 644.36815 503.04279 640.9339 497.72698 632.77394 C 495.37699 629.16662 493.77967 625.69093 494.17619 625.04933 C 495.19216 623.40546 490.97274 617.33253 488.81487 617.33253 C 487.83068 617.33253 485.50169 616.13317 483.63713 614.66651 C 481.77256 613.19985 478.94593 612.0005 477.35784 612.0005 z M 466.11174 616.53956 C 465.83716 616.54547 465.58012 616.58853 465.3344 616.66651 C 462.89063 617.44213 462.83577 617.79064 464.60979 621.2212 C 467.77396 627.34003 475.75088 633.58563 479.10979 632.57276 C 480.69971 632.09332 482.44355 631.29481 482.98479 630.79933 C 483.52603 630.30385 480.37142 626.73169 475.97502 622.86183 C 470.78041 618.28934 468.03384 616.4982 466.11174 616.53956 z M 463.90666 630.10792 C 463.84939 630.11012 463.80355 630.12035 463.76994 630.14112 C 461.70391 631.418 462.65791 634.49386 466.33244 638.40089 C 471.92732 644.34977 474.98856 645.67543 477.00041 643.02198 C 477.91708 641.81299 478.63271 640.48846 478.59221 640.07862 C 478.45013 638.64105 465.68226 630.03982 463.90666 630.10792 z M 463.79534 643.79737 C 463.56559 643.81466 463.4062 643.88191 463.33049 644.00441 C 460.65615 648.33157 472.54142 656.72978 477.82268 654.24464 C 479.90588 653.26437 480.01389 652.80236 478.48869 651.41456 C 474.82663 648.0824 466.01621 643.6303 463.79534 643.79737 z M 587.85784 842.66651 C 587.3481 842.66651 582.78157 847.10847 577.71135 852.53761 C 561.21639 870.20026 555.25003 887.21951 556.3969 913.33253 C 557.14261 930.31167 560.05485 942.04404 569.26604 965.16456 C 573.15668 974.93028 575.92347 985.50868 579.33049 1003.6489 C 581.91476 1017.4084 584.90125 1032.2665 585.96721 1036.6665 C 587.03317 1041.0665 587.92547 1046.9545 587.95159 1049.7505 C 587.99789 1054.7083 587.79346 1054.9267 579.66643 1058.6021 C 575.08309 1060.6749 567.13374 1063.6814 562.00041 1065.2817 C 547.81908 1069.7032 519.31047 1075.7135 515.0844 1075.1724 C 505.29912 1073.9196 500.26665 1074.4803 494.60198 1077.4595 C 489.65943 1080.059 489.15156 1080.6585 491.56487 1081.0376 C 493.15857 1081.288 496.75857 1080.3648 499.56487 1078.9868 C 502.78766 1077.4043 506.09388 1076.761 508.54143 1077.2407 L 512.41643 1078.0005 L 508.7719 1079.9478 C 504.34071 1082.3151 500.81538 1087.7386 504.84416 1085.9907 C 510.36449 1083.5956 524.98504 1080.1489 529.92815 1080.0767 L 535.18791 1080.0005 L 529.08635 1083.8696 C 522.27625 1088.1885 519.28518 1091.5985 523.45744 1090.2876 C 524.85544 1089.8483 532.34036 1086.8752 540.09026 1083.6802 C 547.84017 1080.4852 563.57336 1075.2255 575.05315 1071.9927 C 586.53295 1068.7598 596.20232 1065.3967 596.53948 1064.5181 C 596.87665 1063.6394 596.25241 1058.8133 595.15276 1053.7935 C 590.37615 1031.989 591.5772 1003.6889 597.86174 989.93995 C 604.538 975.33412 614.20281 968.33163 629.45159 967.05323 C 636.34199 966.47556 638.66643 965.78383 638.66643 964.31105 C 638.66643 963.22774 632.12951 948.76407 624.13909 932.17042 C 610.28459 903.3989 600.7482 879.9132 592.53166 854.33253 C 590.47063 847.91588 588.36758 842.66651 587.85784 842.66651 z " />
    <path
       id="path3"
       style="fill:#ffb380"
       d="M 540.87932 481.6255 C 537.82048 481.66235 537.78257 483.98118 541.00041 487.82862 C 543.89671 491.2916 561.83193 501.20331 562.4594 499.688 C 562.71173 499.07864 561.34384 496.51648 559.42034 493.99464 C 554.68172 487.78199 547.99107 482.86465 542.88909 481.84425 C 542.11703 481.68984 541.44577 481.61867 540.87932 481.6255 z M 577.80119 513.75441 C 577.58686 513.96874 579.85388 517.0979 582.8383 520.70948 C 591.69014 531.42141 595.11555 539.33979 595.21916 549.33253 C 595.33125 560.14327 590.97218 568.80296 580.37151 578.82862 C 576.41757 582.5681 573.48517 585.93057 573.85588 586.30128 C 574.22659 586.67199 576.45042 586.30531 578.79729 585.48683 C 581.14415 584.66871 583.62227 584.0005 584.30315 584.0005 C 584.98404 584.0005 582.19425 590.2382 578.10393 597.86378 C 574.01361 605.48936 570.66643 612.09068 570.66643 612.53175 C 570.66643 612.97283 572.01643 613.33314 573.66643 613.33253 L 576.66643 613.33058 L 576.26799 648.99855 C 575.91482 680.52128 576.2566 687.84364 579.21721 712.0005 C 581.05966 727.03381 582.97274 745.18254 583.46721 752.33253 C 583.96168 759.48252 584.75574 765.33253 585.23284 765.33253 C 585.70993 765.33253 588.84747 762.48383 592.20549 759.0005 C 595.56352 755.51717 600.88887 748.76716 604.03948 744.0005 C 607.19008 739.23383 618.93011 725.93413 630.12932 714.44581 C 653.7296 690.23629 655.1609 687.62926 651.33049 675.83058 C 648.62943 667.51063 645.32558 661.54896 639.09807 653.76026 C 634.76651 648.34283 634.72608 648.17601 637.60979 647.76026 C 644.87978 646.71214 651.86408 628.00722 652.96135 606.64698 C 654.516 576.38287 642.81439 551.54589 619.50823 535.63917 C 611.68188 530.29761 578.61118 512.94443 577.80119 513.75441 z M 722.0258 718.22316 C 721.61259 718.30518 720.9012 719.3518 719.87151 720.95948 C 713.64755 730.67706 696.6942 738.94701 659.14299 750.58253 C 648.03822 754.02343 637.33703 757.89697 635.36369 759.18995 C 631.02507 762.03273 627.52915 769.43864 624.50237 782.19972 C 622.36645 791.20488 622.3709 792.26634 624.56877 801.30909 C 625.84858 806.57469 626.48856 811.28324 625.99065 811.77394 C 625.49273 812.26464 623.19042 810.41654 620.87541 807.66651 C 618.56042 804.91649 616.24623 802.66648 615.73284 802.66651 C 615.21943 802.66654 614.6091 806.11587 614.37541 810.33253 L 613.94963 818.0005 L 609.9926 810.0005 L 606.03557 802.0005 L 605.35002 811.14503 L 604.66643 820.28956 L 601.00041 812.78175 C 595.49109 801.50122 594.54601 795.69067 596.80901 787.00245 C 597.86644 782.94272 598.50957 779.39833 598.23869 779.12745 C 597.96783 778.85658 596.07861 782.56196 594.03948 787.35987 C 590.78656 795.0137 590.44288 797.10019 591.23674 804.3755 C 593.54021 825.48566 604.16421 863.38277 615.61369 891.33253 C 623.8423 911.41967 642.57282 948.21492 644.09221 947.27589 C 644.77444 946.85425 645.33244 936.88954 645.33244 925.13136 C 645.33244 900.54893 648.01066 884.26734 655.19768 865.13331 C 661.21075 849.12473 666.59856 840.70332 681.39299 824.19776 C 700.83131 802.51123 707.60713 791.29921 713.76018 770.64308 C 717.81703 757.02404 718.11991 755.50139 720.65276 736.0005 C 722.40185 722.53389 722.93487 718.04271 722.0258 718.22316 z " />
    <path
       style="fill:#ffff00"
       d="m 620.22839,439.12668 c 3.21121,-2.90611 3.07847,-5.60674 -0.46077,-9.37408 -5.16867,-5.5018 -13.10091,-3.4377 -13.10091,3.40908 0,7.07709 8.29924,10.72745 13.56168,5.965 z"
       id="path4" />
    <path
       style="fill:#ffcc00"
       d="m 468.66013,662.66916 c 5.45275,-2.07313 2.62536,-4.00249 -5.86547,-4.00249 -8.08459,0 -9.92555,-1.07947 -13.45663,-7.89043 -1.78801,-3.44882 -2.26008,-17.51365 -0.76752,-22.86755 l 0.9038,-3.24202 -2.73714,3.14771 c -2.14966,2.47211 -2.73714,4.98534 -2.73714,11.70949 0,10.28759 2.18509,16.04527 7.921,20.87172 4.57756,3.85176 10.47966,4.65341 16.7391,2.27357 z"
       id="path5" />
    <path
       style="fill:#0000ff"
       d="m 92.693845,478.55968 c 8.520135,-9.8394 16.337505,-16.96857 29.178085,-26.60942 17.46119,-13.11004 17.64338,-13.20522 40.63068,-21.22634 l 23.09083,-8.05725 h 24.32462 c 37.37614,0 43.37064,-1.13189 63.41529,-11.97416 9.16667,-4.95831 21.15617,-11.27031 26.64333,-14.02668 5.48717,-2.75637 19.34443,-11.14985 30.79392,-18.65218 l 20.81726,-13.6406 35.20609,-2.79333 c 19.36334,-1.53633 42.10608,-3.15236 50.53941,-3.59117 l 15.33334,-0.79785 26.53705,-12.09552 26.53705,-12.09551 11.13162,0.90322 11.13162,0.90321 30.40387,-10.60169 30.40388,-10.60168 25.92746,-2.13192 25.92746,-2.13192 44.66667,4.90469 44.66667,4.90469 16.91455,-8.1084 c 15.32145,-7.34471 19.00734,-8.51473 39.13434,-12.4225 21.5832,-4.1905 22.64792,-4.27069 37.16358,-2.79907 8.21909,0.83327 21.80864,1.51812 30.199,1.52188 11.16601,0.005 19.45601,0.89853 30.92678,3.33334 8.61937,1.82956 16.5424,3.32648 17.60675,3.32648 1.06434,0 -11.38787,-13.32377 -27.67158,-29.60839 -27.44127,-27.44278 -32.04479,-31.41327 -62.94008,-54.28504 -27.71238,-20.51547 -37.7854,-27.08822 -59.73491,-38.97765 -36.11996,-19.56516 -75.45161,-35.07264 -113.59844,-44.789 -27.42164,-6.98455 -28.82623,-7.19727 -68,-10.29837 -36.58505,-2.89618 -43.07347,-3.05693 -76.00001,-1.88287 -19.8,0.706 -41.7,2.13713 -48.66667,3.18028 -15.58537,2.33367 -50.41317,14.57815 -85.25939,29.97482 -22.75287,10.05326 -27.22364,12.65498 -59.75926,34.77621 C 280.97311,205.24049 264.43602,216 263.56562,216 c -0.8704,0 -19.07699,17.55 -40.45908,39 l -38.87652,39 -21.15888,32.66667 c -20.1059,31.04101 -21.99947,34.55773 -38.05026,70.66666 -9.29026,20.9 -23.22052,50.3665 -30.956132,65.4811 C 80.722414,488.88401 79.277144,492 80.527804,492 c 0.29029,0 5.765008,-6.04814 12.166041,-13.44032 z"
       id="path6" />
    <path
       style="fill:#b3b3b3"
       d="m 439.70458,115.89717 c 0.42219,-3.67412 -7.15279,-54.456516 -8.29313,-55.596856 -2.72736,-2.727363 -2.54118,0.692627 2.7418,50.366356 0.42896,4.03333 1.07495,7.815 1.43554,8.40371 1.22844,2.0056 3.74351,0.0665 4.11579,-3.17321 z"
       id="path7" />
  </g>
</svg>
